<svg width="20" height="19" viewBox="0 0 20 19" fill="none" xmlns="http://www.w3.org/2000/svg">
<path d="M0.0144248 10.821C0.158673 10.3378 0.461594 10.0421 0.980887 9.99878C1.01695 9.99878 1.06022 9.93386 1.06744 9.8978C1.31987 8.92413 2.43058 8.36156 3.44032 8.85922C3.46917 8.87364 3.49802 8.88085 3.54129 8.89528C3.75045 8.53466 4.03173 8.26059 4.42842 8.11634C5.07032 7.88554 5.64731 8.01536 6.13776 8.47696C6.26758 8.59957 6.39019 8.67169 6.5705 8.69333C7.25568 8.7943 7.71727 9.18377 7.92643 9.84732C7.95528 9.94108 7.98413 9.99878 8.10674 9.99878C11.374 9.99156 14.6412 9.99878 17.9084 9.99156C17.93 9.99156 17.9589 9.98435 17.9949 9.97714C18.0022 9.91944 18.0022 9.86174 18.0094 9.80404C18.0094 7.55377 18.0094 5.3035 18.0094 3.04602C18.0094 1.90646 17.2953 0.983269 16.2495 0.730835C14.9657 0.420701 13.9127 1.14194 13.718 2.47624C13.7108 2.54115 13.7036 2.60606 13.6964 2.6854C13.7468 2.69982 13.7901 2.72146 13.8334 2.73588C14.5114 2.95226 14.9585 3.52925 15.0018 4.24328C15.0162 4.51735 14.908 4.65438 14.634 4.6616C13.7685 4.66881 12.903 4.66881 12.0375 4.6616C11.7706 4.6616 11.6697 4.53177 11.6769 4.26491C11.6985 3.57974 12.1457 2.95947 12.7876 2.77195C12.9751 2.71425 13.0256 2.6277 13.0472 2.4546C13.1482 1.69008 13.4511 1.03376 14.0714 0.543312C14.9153 -0.120229 16.1774 -0.185141 17.1583 0.399064C18.1608 0.997694 18.6513 1.89203 18.6729 3.04602C18.6801 3.59416 18.6729 4.1423 18.6729 4.68323C18.6729 6.37094 18.6729 8.05143 18.6729 9.73913C18.6729 9.81847 18.6729 9.89059 18.6729 9.99878C18.7883 9.99878 18.8893 9.99878 18.9903 9.99878C19.5745 10.0132 20 10.4315 20 10.9941C20 11.5567 19.5889 11.975 18.9975 11.9966C18.8749 12.0038 18.7523 11.9966 18.608 11.9966C18.4854 12.4871 18.3628 12.9703 18.2402 13.4535C18.0382 14.2325 17.8796 15.0258 17.6199 15.7903C17.317 16.6775 16.6462 17.1679 15.7158 17.3049C15.6581 17.3122 15.6076 17.3266 15.5283 17.341C15.6509 17.5862 15.7663 17.8098 15.8745 18.0406C15.9106 18.1127 15.9394 18.1849 15.9538 18.257C15.9827 18.4229 15.8817 18.6104 15.7303 18.6537C15.5572 18.6969 15.4418 18.6032 15.3696 18.4589C15.2037 18.1416 15.0451 17.8242 14.8936 17.4997C14.8359 17.3771 14.7638 17.3338 14.6268 17.3338C11.6625 17.341 8.70537 17.341 5.74107 17.3338C5.59683 17.3338 5.5247 17.3843 5.467 17.5141C5.32997 17.817 5.17129 18.1055 5.01983 18.4012C4.99098 18.4661 4.94771 18.5311 4.89722 18.5743C4.78182 18.6753 4.64479 18.7042 4.50054 18.6104C4.35629 18.5166 4.32744 18.3796 4.39235 18.2353C4.49333 18.0045 4.61594 17.781 4.72413 17.5502C4.75297 17.4853 4.78182 17.4276 4.81067 17.3554C4.56545 17.3266 4.32744 17.3266 4.10386 17.2761C3.12297 17.0525 2.52434 16.4178 2.27191 15.4586C1.99062 14.3695 1.71655 13.2804 1.44969 12.1913C1.41363 12.0399 1.35593 11.9894 1.20447 11.9966C0.879913 12.0183 0.555355 11.9894 0.317346 11.7298C0.18031 11.5783 0.100974 11.3836 0 11.2105C0.0144248 11.0806 0.0144248 10.9508 0.0144248 10.821ZM17.9084 12.011C12.6289 12.011 7.3855 12.011 2.11323 12.011C2.41616 13.1794 2.69023 14.3334 3.022 15.473C3.23116 16.1798 3.75045 16.5837 4.49333 16.6486C4.85395 16.6775 5.22178 16.663 5.5824 16.6703C8.82798 16.6703 12.0808 16.6703 15.3264 16.6703C16.2928 16.6703 16.9347 16.1582 17.1511 15.2133C17.2521 14.7878 17.353 14.3623 17.4468 13.944C17.6055 13.3093 17.7497 12.6674 17.9084 12.011ZM9.98918 11.3331C12.9318 11.3331 15.8745 11.3331 18.81 11.3331C18.8893 11.3331 18.9686 11.3331 19.0407 11.3259C19.2571 11.3042 19.3797 11.1095 19.3148 10.9003C19.2427 10.6767 19.0624 10.6623 18.8749 10.6623C12.9607 10.6623 7.04652 10.6623 1.13235 10.6623C1.05301 10.6623 0.973675 10.6695 0.901551 10.684C0.735665 10.7272 0.670754 10.8498 0.677966 11.0085C0.685178 11.1744 0.771727 11.2898 0.944825 11.3186C1.03137 11.3331 1.11071 11.3259 1.19726 11.3259C4.13271 11.3331 7.06095 11.3331 9.98918 11.3331ZM7.29174 9.99156C7.27732 9.94108 7.2701 9.90501 7.25568 9.87617C7.05373 9.50112 6.72917 9.32081 6.31085 9.34245C6.10169 9.34966 5.97908 9.27032 5.86369 9.10444C5.76271 8.9674 5.62568 8.83758 5.47422 8.77267C4.8828 8.50581 4.26974 8.80873 4.07501 9.44342C3.94519 9.86895 3.74324 9.92665 3.40426 9.63816C3.1951 9.45785 2.95709 9.34245 2.68301 9.34245C2.25748 9.33523 1.84638 9.63816 1.78868 9.99878C3.61342 9.99156 5.44537 9.99156 7.29174 9.99156ZM14.2806 3.99084C14.2012 3.60859 13.7829 3.32009 13.3502 3.33451C12.903 3.34894 12.4991 3.64465 12.4558 3.99084C13.0617 3.99084 13.6675 3.99084 14.2806 3.99084Z" fill="#666666"/>
<path d="M14.3455 7.17873C14.3455 7.09939 14.3455 7.02005 14.3599 6.94793C14.3887 6.78204 14.4897 6.68828 14.6628 6.68107C14.8431 6.67386 14.973 6.76041 14.9946 6.9335C15.0162 7.09939 15.0162 7.27249 14.9946 7.43837C14.973 7.61147 14.8143 7.71966 14.6412 7.69802C14.4609 7.67638 14.3671 7.57541 14.3455 7.3951C14.3455 7.32297 14.3455 7.25085 14.3455 7.17873Z" fill="#666666"/>
<path d="M13.0184 7.17151C13.0184 7.09939 13.0112 7.02726 13.0184 6.95514C13.04 6.78204 13.141 6.68828 13.3141 6.67386C13.4944 6.65943 13.6314 6.73156 13.6603 6.91187C13.6819 7.07775 13.6891 7.25085 13.6675 7.40952C13.6459 7.59704 13.4872 7.70523 13.3069 7.68359C13.1338 7.66917 13.0328 7.55377 13.0184 7.35182C13.0112 7.30134 13.0184 7.23642 13.0184 7.17151Z" fill="#666666"/>
<path d="M11.6769 7.18594C11.6841 7.09939 11.6769 7.02005 11.6913 6.9335C11.7202 6.76762 11.8211 6.68828 11.9798 6.67386C12.1457 6.66665 12.2827 6.72434 12.3116 6.89744C12.3404 7.06333 12.3404 7.22921 12.326 7.3951C12.3044 7.58983 12.1601 7.69802 11.9798 7.69081C11.7923 7.68359 11.6913 7.5682 11.6769 7.35904C11.6769 7.30855 11.6841 7.24364 11.6769 7.18594Z" fill="#666666"/>
<path d="M15.009 8.57793C15.009 8.852 14.9008 8.98904 14.6845 8.99625C14.4609 9.00346 14.3455 8.86643 14.3455 8.59957C14.3455 8.31828 14.4537 8.16683 14.6772 8.16683C14.8936 8.16683 15.009 8.31828 15.009 8.57793Z" fill="#666666"/>
<path d="M13.6819 5.74346C13.6819 6.01753 13.5593 6.16899 13.3429 6.16899C13.1338 6.16178 13.0256 6.03195 13.0184 5.77231C13.0184 5.48381 13.1194 5.34677 13.3429 5.34677C13.5593 5.34677 13.6747 5.4766 13.6819 5.74346Z" fill="#666666"/>
<path d="M15.009 5.77231C15.0018 6.02474 14.8864 6.16178 14.6772 6.16899C14.4537 6.16899 14.3383 6.01753 14.3383 5.72182C14.3455 5.46939 14.4609 5.33956 14.6772 5.33956C14.908 5.34677 15.0162 5.49102 15.009 5.77231Z" fill="#666666"/>
<path d="M11.6841 5.75067C11.6841 5.4766 11.7923 5.34677 12.0159 5.34677C12.2322 5.34677 12.3476 5.48381 12.3548 5.75067C12.3548 6.01753 12.225 6.1762 12.0087 6.16899C11.7851 6.16178 11.6769 6.02474 11.6841 5.75067Z" fill="#666666"/>
<path d="M13.0112 8.57793C13.0112 8.31107 13.1338 8.16683 13.3502 8.17404C13.5665 8.18125 13.6819 8.3255 13.6819 8.59236C13.6819 8.85922 13.5665 8.99625 13.3502 9.00346C13.1194 8.99625 13.0112 8.85922 13.0112 8.57793Z" fill="#666666"/>
<path d="M11.6841 8.57793C11.6841 8.31107 11.7995 8.16683 12.0159 8.16683C12.225 8.16683 12.3476 8.31828 12.3548 8.57793C12.3548 8.852 12.2395 8.99625 12.0087 8.98904C11.7779 8.98904 11.6769 8.85922 11.6841 8.57793Z" fill="#666666"/>
</svg>
