<svg width="20" height="14" viewBox="0 0 20 14" fill="none" xmlns="http://www.w3.org/2000/svg">
<path d="M2.69351 5.90073C2.36029 5.39396 2.40194 4.8386 2.79764 4.3596C2.86706 4.27629 2.90871 4.15134 2.91565 4.04721C2.92954 3.71399 2.91565 3.37383 2.9226 3.04061C2.93648 2.3117 3.45019 1.77716 4.1791 1.77022C6.7546 1.76328 9.32315 1.76328 11.8986 1.77022C12.6276 1.77022 13.1413 2.3117 13.1482 3.04061C13.1552 3.36689 13.1413 3.7001 13.1552 4.02638C13.1621 4.13745 13.2246 4.24852 13.2732 4.3596C13.3842 4.60951 13.53 4.85248 13.5994 5.11628C13.6758 5.38702 13.5925 5.65776 13.3704 5.8799C13.6897 6.10205 14.0229 6.29642 14.3145 6.5394C14.7449 6.8865 15.1614 7.24748 15.5571 7.62929C15.8764 7.93474 16.05 8.33044 16.05 8.77473C16.0569 10.3992 16.0569 12.0167 16.0569 13.6411C16.0569 13.8355 15.9528 13.9188 15.7654 13.9118C15.5293 13.9118 15.2864 13.9049 15.0503 13.9118C14.8351 13.9257 14.731 13.8285 14.7032 13.6203C14.6199 13.1135 14.4255 12.6553 14.0576 12.2874C13.7522 11.982 13.3912 11.8153 12.94 11.8153C9.68414 11.8223 6.42832 11.8223 3.16557 11.8153C2.60326 11.8153 2.18674 12.0514 1.84658 12.4679C1.57584 12.8011 1.43006 13.1899 1.3537 13.6133C1.3051 13.8771 1.26345 13.9188 0.999653 13.9188C0.763624 13.9188 0.527595 13.9188 0.284623 13.9188C0.0971885 13.9188 0 13.8355 0 13.6411C0 12.0236 3.49125e-08 10.4131 0.00694207 8.79556C0.00694207 8.33044 0.201319 7.94169 0.513711 7.60847C1.10378 6.97674 1.79799 6.46303 2.51996 6.00486C2.58938 5.97015 2.63797 5.93544 2.69351 5.90073ZM15.5918 9.50364C15.7515 8.69143 15.4877 8.06664 14.8768 7.55293C14.2798 7.04616 13.655 6.57411 12.9747 6.18535C12.9052 6.1437 12.815 6.12287 12.7386 6.12287C9.60778 6.12287 6.47692 6.12287 3.34606 6.12287C3.2697 6.12287 3.18639 6.13676 3.13086 6.17147C2.36723 6.61576 1.66609 7.13641 1.01354 7.74037C0.479 8.23325 0.395696 8.83027 0.472058 9.51059C5.51198 9.50364 10.5519 9.50364 15.5918 9.50364ZM0.458174 11.3572C5.51892 11.3572 10.5658 11.3572 15.6126 11.3572C15.6126 10.8851 15.6126 10.4269 15.6126 9.96182C10.5519 9.96182 5.51198 9.96182 0.44429 9.96182C0.44429 10.3714 0.44429 10.7671 0.44429 11.1628C0.44429 11.2253 0.451232 11.2877 0.458174 11.3572ZM12.7039 3.94307C12.7039 3.65151 12.7039 3.38077 12.7039 3.11003C12.697 2.51996 12.3915 2.21451 11.7945 2.21451C9.76744 2.21451 7.74037 2.21451 5.71329 2.21451C5.19958 2.21451 4.67893 2.20757 4.16522 2.21451C3.77647 2.21451 3.42242 2.47831 3.38771 2.84623C3.353 3.20028 3.38077 3.56821 3.38077 3.92919C3.63068 3.87365 3.86671 3.78341 4.10274 3.77647C4.99826 3.7487 5.88684 3.72787 6.78237 3.74176C7.20583 3.7487 7.55988 3.95696 7.83756 4.26935C7.90698 4.34571 7.96946 4.42902 8.03888 4.51232C8.36515 4.02638 8.8025 3.72093 9.37175 3.73481C10.4755 3.75564 11.5932 3.58209 12.7039 3.94307ZM7.80285 5.67164C7.9278 4.76918 7.33773 4.11663 6.45609 4.15828C5.8799 4.18605 5.29677 4.16522 4.71364 4.16522C4.29018 4.16522 3.87366 4.20687 3.4849 4.38737C3.19334 4.51926 3.0059 4.74141 2.9226 5.0538C2.81152 5.47032 2.97813 5.68553 3.40854 5.68553C4.79695 5.68553 6.19229 5.68553 7.5807 5.68553C7.65706 5.67858 7.72648 5.67858 7.80285 5.67164ZM8.27491 5.67858C8.70531 5.67858 9.12183 5.67858 9.53835 5.67858C10.5866 5.67858 11.6348 5.67858 12.6831 5.67858C13.0649 5.67858 13.2176 5.49809 13.1482 5.11628C13.0857 4.77612 12.8983 4.51232 12.579 4.39431C12.3082 4.29018 12.0167 4.19993 11.732 4.19299C10.9892 4.15828 10.2534 4.16522 9.51059 4.17216C8.6706 4.17216 8.13606 4.80389 8.27491 5.67858ZM0.937175 13.4606C1.07602 12.8358 1.33981 12.2874 1.83964 11.8362C1.3537 11.8362 0.909406 11.8362 0.458174 11.8362C0.458174 12.3846 0.458174 12.9191 0.458174 13.4606C0.617841 13.4606 0.763624 13.4606 0.937175 13.4606ZM14.2173 11.8292C14.7449 12.2874 14.9879 12.8497 15.1406 13.4537C15.3141 13.4537 15.4599 13.4537 15.6126 13.4537C15.6126 12.9052 15.6126 12.3707 15.6126 11.8292C15.1545 11.8292 14.7171 11.8292 14.2173 11.8292Z" fill="#666666"/>
<path d="M17.1329 3.06144C17.1329 3.65151 17.1329 4.21381 17.1329 4.81083C17.2162 4.81083 17.2857 4.81083 17.362 4.81083C18.1326 4.81083 18.9032 4.81083 19.6668 4.81083C19.9514 4.81083 20 4.85942 20 5.1371C20 7.08782 20 9.03853 20 10.9892C20 11.2739 19.9514 11.3225 19.6737 11.3225C19.5071 11.3225 19.3405 11.3225 19.1739 11.3225C18.9448 11.3225 18.8823 11.26 18.8685 11.024C18.8476 10.42 18.5561 10.0382 17.9799 9.91322C17.7577 9.86463 17.5217 9.8924 17.2926 9.8924C17.1468 9.8924 17.001 9.89934 16.8553 9.88546C16.7164 9.87851 16.6123 9.79521 16.647 9.65637C16.6678 9.57306 16.772 9.48976 16.8622 9.45505C16.9455 9.42034 17.0566 9.44811 17.1538 9.44811C17.8757 9.44811 18.5908 9.44811 19.3127 9.44811C19.3891 9.44811 19.4655 9.44811 19.5557 9.44811C19.5557 8.81638 19.5557 8.20548 19.5557 7.56682C19.4655 7.56682 19.3891 7.56682 19.3058 7.56682C18.4242 7.56682 17.5425 7.56682 16.6609 7.56682C16.6123 7.56682 16.5637 7.56682 16.5151 7.56682C16.3624 7.56682 16.2235 7.52516 16.2235 7.34467C16.2235 7.16418 16.3554 7.12253 16.5151 7.12253C17.2232 7.12253 17.9243 7.12253 18.6324 7.12253C18.9379 7.12253 19.2433 7.12253 19.5557 7.12253C19.5557 6.4908 19.5557 5.8799 19.5557 5.24124C19.4655 5.24124 19.3822 5.24124 19.2989 5.24124C17.6883 5.24124 16.0847 5.24124 14.4741 5.24124C14.4117 5.24124 14.3492 5.24124 14.2867 5.24124C14.1548 5.23429 14.0784 5.17181 14.0715 5.03297C14.0715 4.88719 14.1479 4.81083 14.2867 4.81083C14.6893 4.81083 15.0989 4.81083 15.5016 4.81083C15.5779 4.81083 15.6543 4.81083 15.7376 4.81083C15.7376 4.2277 15.7376 3.65845 15.7376 3.06144C15.4599 3.06144 15.1892 3.06144 14.9115 3.06144C14.5991 3.06144 14.5436 2.98507 14.606 2.67963C14.7518 2.01319 14.8976 1.33981 15.0434 0.673377C15.1475 0.194377 15.3905 0 15.8764 0C16.2652 0 16.6609 0 17.0496 0C17.4592 0.00694203 17.7161 0.208261 17.8063 0.610899C17.959 1.29816 18.1118 1.98542 18.2645 2.67963C18.327 2.97813 18.2575 3.06144 17.959 3.06144C17.6814 3.06144 17.4106 3.06144 17.1329 3.06144ZM15.0712 2.6102C15.9875 2.6102 16.883 2.6102 17.7924 2.6102C17.6467 1.94377 17.5078 1.29816 17.362 0.652551C17.3273 0.499826 17.2232 0.437348 17.0705 0.437348C16.647 0.437348 16.2166 0.437348 15.7931 0.437348C15.6196 0.437348 15.5224 0.520652 15.4877 0.687261C15.4391 0.909406 15.3835 1.13849 15.335 1.36064C15.2516 1.77716 15.1614 2.19368 15.0712 2.6102ZM16.6609 4.79695C16.6609 4.20687 16.6609 3.64457 16.6609 3.07532C16.5012 3.07532 16.3624 3.07532 16.2027 3.07532C16.2027 3.65151 16.2027 4.22076 16.2027 4.79695C16.3624 4.79695 16.5012 4.79695 16.6609 4.79695ZM19.3752 10.8712C19.403 10.8712 19.4724 10.8712 19.5557 10.8712C19.5557 10.538 19.5557 10.2256 19.5557 9.90628C19.3336 9.90628 19.1253 9.90628 18.9518 9.90628C19.0837 10.2187 19.2156 10.5241 19.3752 10.8712Z" fill="#666666"/>
<path d="M17.2162 6.19229C17.1329 6.24783 17.0427 6.35196 16.9663 6.33808C16.89 6.32419 16.7789 6.21312 16.765 6.12982C16.7372 5.99097 16.8483 5.89379 16.9802 5.92155C17.0635 5.93544 17.1399 6.03263 17.2162 6.09511C17.2162 6.12982 17.2162 6.15758 17.2162 6.19229Z" fill="#666666"/>
<path d="M17.0219 8.30962C17.0774 8.39292 17.1607 8.46928 17.1746 8.55953C17.1954 8.69837 17.0913 8.77473 16.9524 8.76779C16.8205 8.76085 16.7303 8.6706 16.765 8.54564C16.7858 8.4554 16.8761 8.38598 16.9316 8.30267C16.9594 8.30962 16.9941 8.30962 17.0219 8.30962Z" fill="#666666"/>
</svg>
