<svg width="20" height="17" viewBox="0 0 20 17" fill="none" xmlns="http://www.w3.org/2000/svg">
<path d="M6.16542 13.8928C6.16542 14.2494 6.19971 14.5923 6.15856 14.9283C6.06255 15.6759 5.43161 16.2245 4.67722 16.2314C3.97769 16.2451 3.28502 16.2451 2.5855 16.2314C1.70081 16.2177 1.04929 15.5661 1.02186 14.6815C1.015 14.462 1.02871 14.2357 1.015 14.0094C1.00814 13.9408 0.946416 13.8791 0.912126 13.8105C0.857261 13.6939 0.761248 13.5704 0.75439 13.4539C0.740674 12.7132 0.747532 11.9794 0.747532 11.2387C0.747532 10.0385 0.75439 8.83836 0.740674 7.64505C0.740674 7.40502 0.802396 7.21985 0.946416 7.03468C1.24131 6.66435 1.51564 6.28715 1.83111 5.86881C1.62537 5.86881 1.46763 5.86881 1.30989 5.86881C0.582938 5.86195 0.0137162 5.29959 0 4.57263C0 4.40118 0 4.22287 0 4.05142C0.0205743 3.53706 0.370337 3.19415 0.884693 3.1873C1.48821 3.1873 2.09858 3.1873 2.72266 3.1873C2.83239 2.71409 2.94898 2.2546 3.05871 1.78825C3.10671 1.57565 3.15472 1.3699 3.20959 1.1573C3.40161 0.402913 3.90911 0.00514358 4.68407 0.00514358C8.12683 0.00514358 11.5696 0.00514358 15.0192 0.00514358C15.2318 0.00514358 15.4581 -0.0154307 15.6639 0.0257178C16.24 0.135447 16.6309 0.478352 16.7817 1.04757C16.9669 1.7471 17.1246 2.45348 17.303 3.1873C17.3715 3.1873 17.447 3.1873 17.5224 3.1873C18.0573 3.1873 18.5991 3.1873 19.1341 3.1873C19.6416 3.1873 19.9913 3.5302 19.9982 4.0377C19.9982 4.29831 20.0119 4.57263 19.9639 4.82638C19.8542 5.44361 19.333 5.86195 18.7089 5.86881C18.558 5.86881 18.4071 5.86881 18.2151 5.86881C18.2631 5.94425 18.2905 5.99911 18.3248 6.04026C18.5991 6.4106 18.8872 6.76722 19.1478 7.14441C19.2232 7.25414 19.2781 7.41188 19.2781 7.54218C19.2849 9.5036 19.2849 11.4582 19.2849 13.4196C19.2849 13.5979 19.2507 13.7488 19.0792 13.8448C19.0381 13.8722 19.0106 13.9545 19.0038 14.0162C18.9969 14.2563 19.0038 14.4894 18.9969 14.7295C18.9695 15.5524 18.318 16.2108 17.5018 16.2314C16.7817 16.2451 16.0685 16.2451 15.3484 16.2314C14.5254 16.2177 13.8671 15.5524 13.8465 14.7363C13.8396 14.462 13.8465 14.1808 13.8465 13.8928C11.2884 13.8928 8.75778 13.8928 6.16542 13.8928ZM1.43334 11.3621C1.48135 11.369 1.50878 11.3759 1.54307 11.3759C3.18215 11.3759 4.82124 11.3759 6.46032 11.3827C6.58377 11.3827 6.62491 11.3278 6.6592 11.225C6.83751 10.6695 7.02954 10.114 7.21471 9.56532C7.31072 9.28414 7.39302 9.22927 7.68792 9.22927C9.2447 9.22927 10.7946 9.22927 12.3514 9.22927C12.6395 9.22927 12.7218 9.291 12.8109 9.55846C12.9961 10.1002 13.1812 10.6352 13.3527 11.1838C13.4007 11.3416 13.4761 11.3964 13.6476 11.3964C15.2318 11.3896 16.8092 11.3896 18.3934 11.3896C18.462 11.3896 18.5306 11.3827 18.5991 11.3827C18.5991 11.0398 18.5991 10.7106 18.5991 10.3677C18.4963 10.3677 18.414 10.3677 18.3317 10.3677C17.2412 10.3677 16.1577 10.3677 15.0672 10.3677C14.7037 10.3677 14.5597 10.1414 14.7312 9.81221C15.0604 9.16755 15.3964 8.52289 15.7256 7.88509C15.8765 7.59705 16.1096 7.43245 16.432 7.39816C16.8572 7.35016 17.2755 7.30901 17.7007 7.261C17.8928 7.24043 18.0916 7.21299 18.318 7.18556C18.0231 6.79465 17.7487 6.44489 17.495 6.08141C17.399 5.94425 17.2892 5.89624 17.1178 5.89624C12.3857 5.9031 7.65363 5.9031 2.92155 5.9031C2.87354 5.9031 2.82553 5.89624 2.77753 5.9031C2.72952 5.90996 2.67465 5.92367 2.64722 5.95111C2.33861 6.35573 2.03685 6.76036 1.70766 7.18556C2.33175 7.25414 2.91469 7.32958 3.50448 7.38445C3.89539 7.41874 4.16286 7.59705 4.34117 7.95367C4.64293 8.56404 4.96526 9.16755 5.28073 9.77106C5.47961 10.1551 5.34245 10.3677 4.91039 10.3677C3.83367 10.3677 2.76381 10.3677 1.68709 10.3677C1.60479 10.3677 1.5225 10.3677 1.4402 10.3677C1.43334 10.7038 1.43334 11.0261 1.43334 11.3621ZM17.0766 5.19672C17.0698 5.13499 17.0698 5.09385 17.0629 5.04584C16.768 3.80452 16.4731 2.57007 16.1714 1.32875C16.0616 0.862405 15.8148 0.677236 15.3415 0.677236C11.7959 0.677236 8.24342 0.677236 4.69779 0.677236C4.22458 0.677236 3.97083 0.876121 3.8611 1.32875C3.68965 2.02142 3.52506 2.70723 3.36046 3.3999C3.2233 3.99655 3.07928 4.58635 2.93526 5.19672C7.66048 5.19672 12.3651 5.19672 17.0766 5.19672ZM4.27945 13.1864C8.11312 13.1864 11.9331 13.1864 15.753 13.1864C15.753 12.7955 15.753 12.432 15.753 12.0548C11.9262 12.0548 8.10626 12.0548 4.27945 12.0548C4.27945 12.432 4.27945 12.8023 4.27945 13.1864ZM7.32444 11.3484C9.12812 11.3484 10.9044 11.3484 12.7149 11.3484C12.5503 10.8684 12.3994 10.4089 12.2417 9.94937C12.228 9.91508 12.1525 9.88765 12.1114 9.88765C10.7261 9.88765 9.34072 9.88079 7.94852 9.88765C7.89366 9.88765 7.8045 9.94251 7.78393 9.99738C7.62619 10.4363 7.48217 10.8821 7.32444 11.3484ZM1.69395 13.8996C1.69395 14.1945 1.68023 14.4689 1.69395 14.7363C1.72824 15.2027 2.078 15.5593 2.53063 15.5661C3.25073 15.5799 3.96397 15.573 4.68407 15.5661C5.04755 15.5593 5.40417 15.3055 5.4659 14.9558C5.52762 14.6129 5.5139 14.2563 5.53448 13.8996C4.23144 13.8996 2.97641 13.8996 1.69395 13.8996ZM14.5186 13.8996C14.5186 14.1877 14.5117 14.462 14.5186 14.7295C14.5323 15.189 14.8958 15.5593 15.3621 15.5661C16.0685 15.573 16.7817 15.573 17.495 15.5661C17.8585 15.5593 18.2014 15.333 18.2768 14.9832C18.3522 14.6334 18.3317 14.2631 18.3591 13.8928C17.0492 13.8996 15.801 13.8996 14.5186 13.8996ZM15.5541 9.66819C16.5966 9.66819 17.5979 9.66819 18.606 9.66819C18.606 9.05096 18.606 8.44059 18.606 7.83022C18.5648 7.83022 18.5374 7.82336 18.51 7.82336C17.8447 7.89195 17.1795 7.96738 16.5143 8.04282C16.4526 8.04968 16.3771 8.09769 16.3497 8.14569C16.0822 8.64633 15.8216 9.14698 15.5541 9.66819ZM1.43334 7.81651C1.43334 8.44745 1.43334 9.05096 1.43334 9.66133C2.44834 9.66133 3.44962 9.66133 4.47833 9.66133C4.21087 9.14012 3.95712 8.64633 3.69651 8.15941C3.66222 8.09769 3.55249 8.04968 3.47705 8.03596C3.141 7.98796 2.7981 7.95367 2.46205 7.91252C2.11915 7.88509 1.7831 7.8508 1.43334 7.81651ZM1.43334 12.0548C1.43334 12.4389 1.43334 12.8023 1.43334 13.1795C2.1603 13.1795 2.87354 13.1795 3.58678 13.1795C3.58678 12.7955 3.58678 12.432 3.58678 12.0548C2.86668 12.0548 2.15344 12.0548 1.43334 12.0548ZM18.5991 13.1864C18.5991 12.8023 18.5991 12.432 18.5991 12.0685C17.8722 12.0685 17.1589 12.0685 16.4457 12.0685C16.4457 12.4526 16.4457 12.8161 16.4457 13.1864C17.1727 13.1864 17.8859 13.1864 18.5991 13.1864ZM2.56492 3.85939C1.98199 3.85939 1.43334 3.85253 0.884693 3.86625C0.816113 3.86625 0.692667 3.96912 0.692667 4.02398C0.685809 4.26402 0.685809 4.51091 0.726957 4.75094C0.774964 5.01841 0.980707 5.19672 1.20702 5.20357C1.51564 5.21043 1.81739 5.21043 2.12601 5.20357C2.17401 5.20357 2.24945 5.14185 2.26317 5.1007C2.3729 4.69608 2.46205 4.29145 2.56492 3.85939ZM17.4676 3.85939C17.5704 4.28459 17.6596 4.68922 17.7624 5.09384C17.7762 5.14185 17.8653 5.19672 17.9202 5.20357C18.1671 5.21729 18.4208 5.21043 18.6677 5.21043C19.0038 5.21043 19.2164 5.06641 19.2781 4.73722C19.3261 4.51091 19.3192 4.27087 19.3124 4.03084C19.3124 3.97598 19.2026 3.87311 19.1409 3.87311C18.5991 3.85253 18.0436 3.85939 17.4676 3.85939Z" fill="#666666"/>
</svg>
