<svg width="12" height="13" viewBox="0 0 12 13" fill="none" xmlns="http://www.w3.org/2000/svg">
<path fill-rule="evenodd" clip-rule="evenodd" d="M0 5.40654C0 2.41663 2.49852 0 5.52074 0C8.55148 0 11.05 2.41663 11.05 5.40654C11.05 6.9132 10.5021 8.31196 9.60018 9.49752C8.60522 10.8053 7.3789 11.9447 5.99855 12.8391C5.68263 13.0458 5.39752 13.0614 5.05079 12.8391C3.66258 11.9447 2.43626 10.8053 1.44983 9.49752C0.547289 8.31196 0 6.9132 0 5.40654ZM3.70117 5.57483C3.70117 6.57645 4.5185 7.36423 5.52066 7.36423C6.52348 7.36423 7.34867 6.57645 7.34867 5.57483C7.34867 4.58101 6.52348 3.75488 5.52066 3.75488C4.5185 3.75488 3.70117 4.58101 3.70117 5.57483Z" fill="#28A3A1"/>
</svg>
