<svg width="20" height="19" viewBox="0 0 20 19" fill="none" xmlns="http://www.w3.org/2000/svg">
<path d="M0 2.70568C0.293414 2.34939 0.586829 1.9931 0.880243 1.63681C1.06887 1.40627 1.2505 1.40627 1.43913 1.63681C1.69761 1.95119 1.94911 2.26556 2.20061 2.57993C2.34732 2.76157 2.34033 2.92923 2.20061 3.04101C2.06089 3.15279 1.89322 3.11786 1.74651 2.94321C1.6557 2.83842 1.57186 2.73363 1.46707 2.60089C1.46707 5.81448 1.46707 8.98615 1.46707 12.1997C1.57186 12.074 1.66268 11.9692 1.74651 11.8644C1.89322 11.6898 2.06089 11.6548 2.20061 11.7666C2.34732 11.8784 2.34732 12.053 2.20759 12.2277C1.94911 12.549 1.69063 12.8634 1.43214 13.1848C1.25749 13.4013 1.06887 13.4013 0.894215 13.1848C0.593815 12.8215 0.3004 12.4582 0.00698605 12.1019C0.00698605 12.0391 0.00698605 11.9692 0.00698605 11.9063C0.209582 11.6339 0.377247 11.6269 0.600801 11.8923C0.684634 11.9902 0.76148 12.088 0.859285 12.1997C0.859285 8.99313 0.859285 5.81448 0.859285 2.60788C0.747508 2.72664 0.670661 2.81746 0.593815 2.91526C0.370261 3.18073 0.202596 3.17375 0 2.90129C0 2.83842 0 2.77554 0 2.70568Z" fill="#666666"/>
<path d="M3.73754 0.91725C3.73754 4.48713 3.73754 8.00111 3.73754 11.5361C3.81439 11.543 3.87726 11.543 3.94712 11.543C4.46409 11.543 4.97407 11.55 5.49104 11.543C6.08486 11.5361 6.3643 12.046 6.23156 12.6329C6.19663 12.7796 6.07787 12.8494 5.93116 12.8285C5.77747 12.8075 5.68665 12.7167 5.67268 12.556C5.62378 12.1299 5.62378 12.1299 5.18366 12.1299C4.72258 12.1299 4.2615 12.1299 3.79343 12.1299C3.77946 12.1299 3.76549 12.1369 3.73754 12.1438C3.73754 12.8355 3.73754 13.5271 3.73754 14.2327C4.37327 14.2327 5.00202 14.2327 5.66569 14.2327C5.66569 14.072 5.66569 13.9113 5.66569 13.7506C5.67268 13.5411 5.77048 13.4223 5.94513 13.4223C6.12677 13.4153 6.24554 13.5411 6.25252 13.7506C6.25951 13.9043 6.25252 14.065 6.25252 14.2327C9.28447 14.2327 12.2955 14.2327 15.3344 14.2327C15.3623 14.065 15.3693 13.8834 15.4182 13.7087C15.4462 13.6039 15.509 13.4782 15.5929 13.4223C15.7815 13.2965 16.019 13.4572 16.0051 13.7017C15.9981 13.7856 15.9771 13.8694 15.9701 13.9532C15.9631 14.0371 15.9562 14.1209 15.9492 14.2257C16.9412 14.2257 17.9192 14.2257 18.9392 14.2257C18.1777 13.562 17.4442 12.9123 16.6897 12.2486C16.5989 12.3953 16.5081 12.5281 16.4242 12.6608C16.3055 12.8494 16.1378 12.9053 15.9841 12.8145C15.8374 12.7237 15.8094 12.563 15.9212 12.3674C16.019 12.1997 16.1308 12.0391 16.2426 11.8574C15.8514 11.5151 15.4532 11.1658 15.0619 10.8165C11.9881 8.12686 8.91421 5.43024 5.84034 2.74061C5.80541 2.72664 5.78446 2.71267 5.7635 2.69171C5.6098 2.55199 5.58885 2.37734 5.70761 2.25159C5.81939 2.12584 5.98705 2.11885 6.14074 2.25159C6.39224 2.46816 6.64374 2.68472 6.89524 2.90828C11.1707 6.6528 15.4462 10.3973 19.7216 14.1419C19.7985 14.2047 19.8893 14.2606 19.9312 14.3445C19.9801 14.4353 20.022 14.561 19.9871 14.6449C19.9522 14.7287 19.8334 14.7846 19.7426 14.8335C19.6937 14.8614 19.6308 14.8405 19.5679 14.8405C14.2446 14.8405 8.91421 14.8405 3.59083 14.8405C3.2066 14.8405 3.12975 14.7636 3.12975 14.3864C3.12975 9.74064 3.12975 5.08793 3.12975 0.442199C3.12975 0.393296 3.11578 0.344394 3.12975 0.309463C3.18564 0.204673 3.22756 0.0719374 3.31838 0.023035C3.4092 -0.0258674 3.56988 0.00906301 3.64672 0.0719375C3.8563 0.225631 4.04493 0.407268 4.24054 0.58192C4.55491 0.854376 4.86928 1.12683 5.18366 1.40627C5.35132 1.55298 5.37926 1.72763 5.2605 1.86037C5.13475 2.00009 4.97407 2.00009 4.79244 1.8464C4.45012 1.546 4.11479 1.24559 3.73754 0.91725Z" fill="#666666"/>
<path d="M17.1787 17.2646C13.4272 17.2646 9.74555 17.2646 6.00102 17.2646C6.14074 17.3834 6.25252 17.4742 6.35731 17.572C6.51799 17.7117 6.54594 17.8864 6.43416 18.0191C6.3154 18.1588 6.15472 18.1658 5.98705 18.0261C5.66569 17.7676 5.33735 17.5021 5.01599 17.2367C4.80641 17.062 4.81339 16.8804 5.02297 16.6988C5.33735 16.4403 5.65871 16.1748 5.98006 15.9163C6.14773 15.7836 6.3154 15.7836 6.43416 15.9163C6.55292 16.049 6.51799 16.2307 6.35033 16.3774C6.29444 16.4263 6.23855 16.4682 6.18266 16.5171C6.13376 16.559 6.08486 16.6009 6.00801 16.6708C9.73158 16.6708 13.4272 16.6708 17.1647 16.6708C17.025 16.559 16.9132 16.4682 16.8015 16.3774C16.6408 16.2377 16.6128 16.07 16.7246 15.9373C16.8364 15.8045 17.0041 15.7906 17.1717 15.9303C17.5001 16.1888 17.8214 16.4542 18.1428 16.7197C18.3594 16.9013 18.3524 17.076 18.1358 17.2576C17.8214 17.5231 17.5001 17.7816 17.1787 18.0331C16.9971 18.1798 16.8294 18.1728 16.7176 18.0261C16.6059 17.8864 16.6408 17.7187 16.8224 17.572C16.9342 17.4602 17.039 17.3764 17.1787 17.2646Z" fill="#666666"/>
<path d="M18.4083 9.97817C18.3803 9.7616 18.3594 9.60791 18.3454 9.45421C18.3314 9.27257 18.4362 9.13984 18.5969 9.11888C18.7576 9.09792 18.8973 9.20271 18.9252 9.38435C18.9811 9.8105 19.037 10.2366 19.0859 10.6628C19.1139 10.9492 19.0021 11.061 18.7087 11.04C18.2895 11.0121 17.8773 10.9842 17.4582 10.9492C17.2625 10.9353 17.1438 10.8165 17.1508 10.6418C17.1578 10.4672 17.2835 10.3624 17.4861 10.3694C17.6398 10.3764 17.7935 10.3903 17.9961 10.4043C15.2785 7.82646 12.6028 5.29052 9.87828 2.71267C9.89924 2.91526 9.91321 3.06896 9.92719 3.22265C9.94116 3.36936 9.88527 3.48113 9.75253 3.53702C9.57788 3.61387 9.38227 3.50908 9.34734 3.29251C9.28447 2.85239 9.22858 2.41227 9.17968 1.97215C9.15173 1.74161 9.28447 1.60887 9.51501 1.62284C9.94814 1.65079 10.3883 1.68572 10.8214 1.72065C11.003 1.73462 11.1218 1.86037 11.1148 2.02105C11.1078 2.18871 10.9751 2.30748 10.7865 2.30748C10.6468 2.30748 10.4931 2.2935 10.2835 2.27953C13.0011 4.8504 15.6837 7.39332 18.4083 9.97817Z" fill="#666666"/>
</svg>
