<svg width="58" height="58" viewBox="0 0 58 58" fill="none" xmlns="http://www.w3.org/2000/svg" stroke-width="0">
<g id="apartment">
<g id="Vector">
<path d="M33.2225 0C33.7809 0.29689 33.8791 0.795201 33.8779 1.3657C33.8708 5.73522 33.8732 10.1048 33.8732 14.4754C33.8732 14.6967 33.8732 14.9179 33.8732 15.2043C34.1264 15.2171 34.3429 15.2369 34.5594 15.2369C38.9805 15.2392 43.4015 15.238 47.8238 15.2404C48.0687 15.2404 48.3159 15.2485 48.5585 15.2788C49.0128 15.3347 49.2648 15.6106 49.3168 16.0495C49.3452 16.2882 49.3357 16.5327 49.3357 16.7737C49.3369 27.0752 49.3381 37.3768 49.3322 47.6783C49.3322 48.0357 49.3878 48.2709 49.7557 48.4816C52.1005 49.8229 53.2209 51.8615 53.1937 54.5219C53.1913 54.7396 53.1937 54.9585 53.1937 55.2344C54.4501 55.2344 55.6734 55.217 56.8943 55.2472C57.1936 55.2542 57.5852 55.3369 57.7591 55.5348C57.9484 55.749 58.0525 56.1717 57.9732 56.4406C57.8951 56.7026 57.5662 56.9308 57.2953 57.0856C57.1214 57.1846 56.8529 57.1345 56.6269 57.1345C38.2233 57.1357 19.8197 57.1345 1.4173 57.1415C0.815124 57.1415 0.281567 57.0821 0 56.4662C0 56.2799 0 56.0948 0 55.9085C0.246075 55.3858 0.669609 55.2053 1.23984 55.2298C1.88106 55.2565 2.52464 55.2356 3.16585 55.2356C4.0283 55.2356 4.89075 55.2356 5.7946 55.2356C5.7946 54.9084 5.7946 54.6511 5.7946 54.3938C5.7946 36.7341 5.79578 19.0732 5.78869 1.41343C5.78869 0.821979 5.87032 0.30504 6.46184 0.0046571C15.3833 -4.37224e-09 24.3035 0 33.2225 0ZM26.1183 45.7421C26.1183 45.4103 26.1183 45.189 26.1183 44.9678C26.1183 35.5977 26.1183 26.2265 26.1183 16.8564C26.1183 15.3987 26.2839 15.238 27.7876 15.238C28.9588 15.238 30.13 15.2392 31.3013 15.2369C31.5012 15.2369 31.6999 15.2171 31.8987 15.2066C31.8987 10.7416 31.8987 6.34414 31.8987 1.93153C23.8397 1.93153 15.8186 1.93153 7.77148 1.93153C7.77148 19.7042 7.77148 37.4478 7.77148 55.2053C7.91937 55.2158 8.03176 55.217 8.14178 55.2333C8.61382 55.3043 8.82204 55.1459 8.92023 54.6441C9.02789 54.0899 9.32602 53.5718 9.52004 53.0316C9.59812 52.8139 9.65609 52.5799 9.66674 52.3505C9.70105 51.6461 9.6691 50.9382 9.73772 50.2374C9.78741 49.7367 10.1766 49.5295 10.6712 49.5388C11.1456 49.5469 11.452 49.774 11.5655 50.235C11.5987 50.3701 11.6306 50.504 11.6377 50.5296C12.5629 50.2315 13.4561 49.9579 14.3351 49.6459C14.483 49.5935 14.6131 49.3944 14.6782 49.2337C14.9372 48.5992 15.175 47.9565 15.4034 47.3104C15.4684 47.1264 15.4968 46.9227 15.5004 46.7271C15.5122 46.0401 15.4874 45.352 15.5146 44.6663C15.5347 44.14 15.8577 43.8536 16.3877 43.8315C16.8976 43.8105 17.2643 44.012 17.3732 44.5464C17.4015 44.6861 17.4441 44.8223 17.4855 44.9783C20.5224 43.1632 23.3523 43.5055 26.1183 45.7421ZM47.373 17.1742C40.929 17.1742 34.5298 17.1742 28.094 17.1742C28.094 27.2301 28.094 37.2568 28.094 47.3406C28.2762 47.2708 28.4111 47.223 28.5424 47.1672C30.5382 46.3324 32.4535 46.5128 34.2601 47.6655C34.5961 47.8797 34.8504 47.9088 35.2337 47.8261C36.3943 47.5758 37.5478 47.4594 38.7143 47.9495C39.7648 48.3908 40.6415 49.023 41.414 49.8846C41.8742 49.3129 42.6136 49.0486 42.6834 48.1801C42.7248 47.6643 43.4985 47.4803 44.0439 47.7493C44.1859 47.8191 44.3515 47.9158 44.4959 47.8995C45.4423 47.7924 46.3864 47.6585 47.373 47.5269C47.373 37.4815 47.373 27.357 47.373 17.1742ZM32.812 49.115C31.3486 48.1871 29.4829 48.477 28.1721 49.7681C27.7734 50.1605 27.4457 50.7508 26.7252 50.5273C26.071 50.3247 26.0213 49.7204 25.8864 49.1814C25.2748 46.7352 22.6094 45.1949 20.1309 45.8527C17.9375 46.4348 16.6929 47.9484 16.4563 50.3212C16.3747 51.1397 16.1085 51.3108 15.2815 51.4494C14.5149 51.5774 13.7187 51.7637 13.0396 52.1188C11.8116 52.7615 11.0817 53.8338 10.7753 55.189C17.6453 55.189 24.4478 55.189 31.2823 55.189C30.5737 52.8546 31.1333 50.8626 32.812 49.115ZM51.134 55.2309C51.1766 55.1227 51.2215 55.0563 51.2286 54.9864C51.4226 53.0793 50.8335 51.4657 49.202 50.3747C47.6144 49.3129 45.8966 49.2221 44.1563 50.0802C43.2596 50.5226 42.6704 51.2444 42.1712 52.0804C41.6932 52.8826 40.8379 52.8325 40.4072 52.0152C40.3197 51.851 40.2487 51.6776 40.1552 51.5157C38.7403 49.0405 35.3615 49.193 33.8697 50.8754C32.8806 51.9908 32.7682 53.311 33.3113 54.6942C33.4686 55.0935 33.6804 55.2426 34.1394 55.2414C39.6181 55.2216 45.098 55.2286 50.5768 55.2286C50.7637 55.2309 50.9494 55.2309 51.134 55.2309Z" fill="white"/>
<path d="M27.1109 5.63742C27.1109 5.30444 27.0825 4.96796 27.1168 4.63847C27.1712 4.11921 27.5131 3.85492 28.023 3.81649C28.5223 3.77807 28.9635 4.11222 28.9967 4.62217C29.0428 5.3417 29.0428 6.06704 29.0002 6.7854C28.9683 7.31398 28.5696 7.60738 28.0396 7.59807C27.5119 7.58992 27.1724 7.28022 27.1061 6.74698C27.1014 6.70972 27.099 6.67363 27.099 6.63637C27.099 6.30339 27.099 5.96924 27.099 5.63626C27.1026 5.63742 27.1073 5.63742 27.1109 5.63742Z" fill="white"/>
<path d="M21.308 28.5317C21.308 28.1988 21.2914 27.8646 21.3115 27.5328C21.3435 27.0065 21.6629 26.7318 22.1775 26.6782C22.6685 26.627 23.1228 26.9018 23.1607 27.3849C23.2222 28.1731 23.2222 28.973 23.1559 29.7612C23.1157 30.2444 22.6602 30.5064 22.1633 30.454C21.6736 30.4016 21.3565 30.1408 21.3175 29.6436C21.2891 29.2757 21.3115 28.9031 21.3115 28.5329C21.3115 28.5329 21.3104 28.5317 21.308 28.5317Z" fill="white"/>
<path d="M11.575 5.7294C11.575 6.09964 11.6069 6.47221 11.5667 6.83779C11.5135 7.3361 11.1787 7.57944 10.683 7.59457C10.1932 7.60971 9.7815 7.40596 9.74601 6.90998C9.68804 6.10313 9.69159 5.28581 9.7531 4.48013C9.7886 4.00278 10.2169 3.813 10.6629 3.82232C11.1373 3.83163 11.5111 4.0575 11.5655 4.56512C11.6058 4.94934 11.5738 5.34053 11.5738 5.7294H11.575Z" fill="white"/>
<path d="M11.5868 34.3077C11.5868 34.6407 11.6046 34.9748 11.5833 35.3067C11.5502 35.8259 11.2556 36.1181 10.7256 36.1589C10.1778 36.2008 9.77203 35.9447 9.73062 35.4091C9.67265 34.657 9.6762 33.8944 9.73062 33.1423C9.76611 32.6486 10.1908 32.3622 10.6747 32.3785C11.1716 32.3948 11.5064 32.6975 11.5809 33.1982C11.5892 33.2529 11.5987 33.3088 11.5987 33.3635C11.5999 33.6778 11.5999 33.9934 11.5999 34.3077C11.5951 34.3077 11.5916 34.3077 11.5868 34.3077Z" fill="white"/>
<path d="M11.5774 22.8454C11.5774 23.2157 11.6069 23.5882 11.5703 23.955C11.5206 24.4451 11.1432 24.7676 10.6522 24.749C10.179 24.7304 9.76729 24.5336 9.73535 24.0237C9.68803 23.2517 9.68093 22.4729 9.73417 21.7021C9.76966 21.1759 10.1743 20.9593 10.6924 20.9709C11.2023 20.9826 11.53 21.2737 11.5774 21.7929C11.6093 22.141 11.5833 22.495 11.5833 22.8466C11.5809 22.8454 11.5797 22.8454 11.5774 22.8454Z" fill="white"/>
<path d="M23.2506 40.0255C23.2305 40.3922 23.2458 40.7671 23.1831 41.1281C23.0909 41.6625 22.7241 41.907 22.1693 41.8685C21.6665 41.8336 21.3352 41.5344 21.3151 41.0151C21.2879 40.3317 21.2926 39.6448 21.3139 38.9613C21.3305 38.4351 21.6605 38.1615 22.1752 38.1079C22.6945 38.0543 23.0968 38.3373 23.1831 38.86C23.2458 39.2408 23.2305 39.6343 23.2506 40.0255Z" fill="white"/>
<path d="M21.308 11.4018C21.308 11.0688 21.2926 10.7346 21.3115 10.4028C21.3399 9.87771 21.6534 9.59945 22.1693 9.54473C22.6886 9.48884 23.1323 9.76827 23.1749 10.2899C23.2364 11.042 23.2376 11.8058 23.1772 12.5579C23.1346 13.0934 22.7277 13.3403 22.1752 13.3053C21.6712 13.2739 21.3506 12.9747 21.3139 12.4578C21.2879 12.1061 21.308 11.7534 21.308 11.4018Z" fill="white"/>
<path d="M21.3033 17.0986C21.3033 16.7842 21.2867 16.4687 21.3068 16.1543C21.3423 15.6013 21.6594 15.2881 22.1834 15.259C22.7348 15.2287 23.1358 15.4767 23.1784 16.0158C23.2364 16.7679 23.2281 17.5305 23.1737 18.2838C23.1358 18.8112 22.7217 19.0278 22.2142 19.0243C21.6901 19.0208 21.3482 18.689 21.3104 18.1522C21.2855 17.8018 21.3056 17.449 21.3056 17.0974C21.3056 17.0997 21.3033 17.0986 21.3033 17.0986Z" fill="white"/>
<path d="M21.3115 5.69913C21.3115 5.34752 21.2867 4.99358 21.3175 4.6443C21.3612 4.14599 21.7138 3.81882 22.2119 3.81882C22.6874 3.81882 23.1193 4.00744 23.1559 4.50924C23.2139 5.31608 23.2175 6.13341 23.1477 6.93792C23.1051 7.43157 22.6756 7.62019 22.1882 7.59341C21.6889 7.56547 21.3731 7.30118 21.3234 6.80869C21.2867 6.44194 21.3163 6.06937 21.3163 5.69913C21.3139 5.69913 21.3115 5.69913 21.3115 5.69913Z" fill="white"/>
<path d="M15.5146 5.68167C15.5146 5.33006 15.485 4.97612 15.5217 4.628C15.5749 4.1227 15.931 3.82581 16.4243 3.81184C16.9094 3.79903 17.3306 4.08894 17.3637 4.58026C17.4134 5.33355 17.411 6.09498 17.3625 6.84827C17.3282 7.37685 16.9354 7.59923 16.4172 7.59457C15.9062 7.58991 15.5725 7.30816 15.5205 6.78773C15.4838 6.42447 15.5146 6.05074 15.5146 5.68167Z" fill="white"/>
<path d="M27.1073 11.4413C27.1073 11.0897 27.0825 10.7358 27.1132 10.3877C27.1594 9.86258 27.532 9.54008 28.0455 9.53193C28.5613 9.52378 28.9683 9.83348 29.0014 10.3586C29.0452 11.0595 29.0452 11.765 29.0061 12.4659C28.9754 13.0283 28.5802 13.3263 28.0183 13.3077C27.4883 13.2902 27.1511 12.9828 27.1085 12.4403C27.0825 12.1096 27.1038 11.7743 27.1038 11.4413H27.1073Z" fill="white"/>
<path d="M15.5169 28.5748C15.5169 28.2046 15.4862 27.832 15.524 27.4664C15.5773 26.967 15.9417 26.6642 16.4397 26.6759C16.9212 26.6875 17.3235 26.8901 17.3554 27.3966C17.4051 28.1685 17.4086 28.9474 17.3566 29.7193C17.3235 30.2083 16.8999 30.4901 16.4007 30.4563C15.9133 30.4237 15.5773 30.1885 15.5229 29.6844C15.4826 29.3176 15.485 28.9462 15.4672 28.576C15.485 28.576 15.5016 28.5748 15.5169 28.5748Z" fill="white"/>
<path d="M21.3139 22.8245C21.3139 22.4729 21.2879 22.1189 21.3198 21.7696C21.366 21.2771 21.6712 21.0047 22.1716 20.9721C22.6863 20.9383 23.1157 21.1433 23.1583 21.6648C23.2234 22.4519 23.2163 23.2518 23.1595 24.04C23.124 24.5429 22.7016 24.7385 22.226 24.7455C21.7315 24.7525 21.3636 24.4242 21.3198 23.9329C21.2867 23.5673 21.3139 23.1947 21.3139 22.8245Z" fill="white"/>
<path d="M15.4672 22.8501C15.4874 22.4612 15.4791 22.07 15.5335 21.687C15.6009 21.2178 15.9275 20.9884 16.396 20.9698C16.8834 20.9511 17.3057 21.1444 17.3448 21.6404C17.4075 22.4472 17.4016 23.2646 17.3459 24.0726C17.3128 24.5511 16.8917 24.7467 16.4468 24.7432C15.9736 24.7397 15.5986 24.5231 15.5323 24.0132C15.4814 23.629 15.4874 23.2389 15.4672 22.8501Z" fill="white"/>
<path d="M15.5134 34.2588C15.5134 33.9072 15.4945 33.5544 15.5181 33.2051C15.5548 32.6684 15.9097 32.4251 16.4137 32.3832C16.8952 32.3424 17.3306 32.6498 17.3625 33.1353C17.4122 33.9072 17.411 34.6873 17.3554 35.458C17.3187 35.9575 16.9236 36.1682 16.4326 36.1612C15.9381 36.1542 15.5986 35.9202 15.5323 35.4219C15.4815 35.0389 15.4886 34.6465 15.4708 34.2588C15.4826 34.26 15.498 34.26 15.5134 34.2588Z" fill="white"/>
<path d="M23.2565 34.2553C23.2293 34.6791 23.2387 35.0715 23.1701 35.451C23.0779 35.9715 22.7028 36.1834 22.1858 36.1613C21.6818 36.1391 21.3388 35.8364 21.3163 35.3206C21.2855 34.6186 21.2855 33.913 21.3198 33.211C21.3435 32.7115 21.7126 32.3855 22.2107 32.3855C22.6863 32.3843 23.0743 32.5741 23.1618 33.0759C23.2328 33.4741 23.2305 33.8839 23.2565 34.2553Z" fill="white"/>
<path d="M15.5181 11.4297C15.5181 11.0606 15.4862 10.6869 15.5252 10.3213C15.5796 9.82067 15.944 9.51912 16.4456 9.53775C16.92 9.55521 17.3282 9.74848 17.359 10.2608C17.4039 11.0327 17.4098 11.8116 17.359 12.5835C17.3235 13.1191 16.9058 13.3216 16.3971 13.3042C15.9026 13.2879 15.5714 13.0411 15.5252 12.5381C15.4909 12.1713 15.5181 11.7988 15.5181 11.4297Z" fill="white"/>
<path d="M15.4696 17.13C15.4862 16.7609 15.4826 16.3895 15.524 16.0228C15.5796 15.5209 15.9085 15.2765 16.4019 15.2613C16.9118 15.2462 17.3258 15.4523 17.3601 15.9867C17.4086 16.7586 17.4051 17.5375 17.3578 18.3094C17.327 18.8217 16.9153 19.0126 16.4409 19.0277C15.9393 19.044 15.6009 18.739 15.5169 18.2395C15.5075 18.1848 15.4956 18.1301 15.4945 18.0742C15.4921 17.7599 15.4933 17.4455 15.4933 17.13C15.4862 17.1311 15.4779 17.1311 15.4696 17.13Z" fill="white"/>
<path d="M17.4465 39.9964C17.4217 40.3969 17.4205 40.7683 17.3696 41.1327C17.2951 41.6659 16.926 41.8813 16.4137 41.8697C15.9204 41.8592 15.5572 41.6217 15.5311 41.1199C15.4921 40.3643 15.4921 39.604 15.5335 38.8484C15.5607 38.3384 15.9511 38.1137 16.4291 38.1079C16.9023 38.1009 17.2856 38.3 17.3613 38.8111C17.4205 39.2116 17.4217 39.6203 17.4465 39.9964Z" fill="white"/>
<path d="M11.575 28.5795C11.575 28.9497 11.6046 29.3223 11.5679 29.6879C11.5182 30.1909 11.1751 30.4354 10.6865 30.4528C10.2027 30.4703 9.78268 30.2665 9.746 29.7682C9.68685 28.9614 9.68448 28.1441 9.75192 27.3384C9.79332 26.8412 10.2322 26.6526 10.7126 26.6794C11.1716 26.705 11.5123 26.9379 11.5632 27.414C11.6034 27.7983 11.5715 28.1895 11.5715 28.5783L11.575 28.5795Z" fill="white"/>
<path d="M11.5892 11.4914C11.5892 11.8058 11.6105 12.1224 11.5845 12.4345C11.5395 12.991 11.2201 13.2879 10.6901 13.3077C10.14 13.3275 9.76139 13.0737 9.72116 12.5229C9.66674 11.7883 9.67029 11.0443 9.72589 10.3108C9.76612 9.78225 10.1897 9.49351 10.709 9.54008C11.2225 9.58665 11.5513 9.8521 11.5809 10.3818C11.6022 10.7509 11.5845 11.1212 11.5845 11.4914C11.5868 11.4914 11.5892 11.4914 11.5892 11.4914Z" fill="white"/>
<path d="M11.5786 17.1777C11.5786 17.5293 11.6069 17.8833 11.5715 18.2314C11.5206 18.7332 11.1657 19.0394 10.6605 19.0278C10.1849 19.0173 9.76848 18.8275 9.73772 18.3175C9.68922 17.5282 9.68567 16.7306 9.74364 15.9424C9.78031 15.4383 10.1979 15.2485 10.6818 15.2625C11.1751 15.2765 11.5159 15.514 11.5667 16.0158C11.6058 16.4 11.575 16.7912 11.575 17.1801C11.5762 17.1777 11.5786 17.1777 11.5786 17.1777Z" fill="white"/>
<path d="M11.5797 40.0255C11.5797 40.3771 11.6034 40.7299 11.5738 41.0791C11.5324 41.5786 11.2201 41.8406 10.722 41.8674C10.2133 41.8953 9.78032 41.7067 9.74128 41.1734C9.68331 40.3852 9.68922 39.5865 9.74364 38.7983C9.77913 38.2884 10.2062 38.0963 10.6783 38.1079C11.1574 38.1207 11.5182 38.3536 11.5667 38.8612C11.6034 39.2466 11.5738 39.6366 11.5738 40.0255C11.5762 40.0255 11.5774 40.0255 11.5797 40.0255Z" fill="white"/>
<path d="M11.5774 45.6967C11.5774 46.0669 11.601 46.4383 11.5715 46.805C11.5312 47.3115 11.1917 47.5467 10.7078 47.5909C10.2074 47.6363 9.77558 47.3639 9.73772 46.8737C9.67857 46.1041 9.68211 45.3241 9.7318 44.5522C9.76611 44.0189 10.1778 43.8152 10.6901 43.8245C11.2012 43.835 11.5289 44.1249 11.5762 44.6418C11.6081 44.9899 11.5821 45.3439 11.5821 45.6955C11.5821 45.6955 11.5797 45.6967 11.5774 45.6967Z" fill="white"/>
<path d="M44.5313 32.3715C44.51 32.7557 44.5112 33.1271 44.4651 33.4927C44.3977 34.0201 44.0498 34.2611 43.5293 34.2576C43.036 34.2541 42.6598 34.0248 42.6302 33.5241C42.5852 32.7511 42.5852 31.9722 42.6337 31.2002C42.6657 30.6903 43.0786 30.4796 43.553 30.4842C44.0274 30.4889 44.3953 30.7124 44.4592 31.2224C44.5077 31.6077 44.5089 31.9978 44.5313 32.3715Z" fill="white"/>
<path d="M44.5313 26.6782C44.51 27.0519 44.5148 27.4245 44.4615 27.7889C44.3894 28.2814 44.0108 28.5818 43.5187 28.5527C43.0395 28.5248 42.6527 28.3094 42.6255 27.8006C42.5852 27.0461 42.5769 26.2847 42.6266 25.5314C42.6598 25.0284 43.0525 24.7537 43.5624 24.7723C44.0534 24.7909 44.3941 25.018 44.4592 25.5198C44.51 25.904 44.5089 26.294 44.5313 26.6782Z" fill="white"/>
<path d="M44.5313 20.9802C44.51 21.3493 44.5041 21.7196 44.4615 22.0863C44.4024 22.5998 44.0368 22.8082 43.5648 22.8431C43.0809 22.8792 42.6574 22.5683 42.6266 22.0805C42.5781 21.326 42.5829 20.5658 42.6255 19.8102C42.6539 19.3095 43.0194 19.079 43.5139 19.065C44.0392 19.0499 44.3645 19.3107 44.4651 19.8148C44.4793 19.887 44.4994 19.9603 44.5006 20.0337C44.5041 20.348 44.5018 20.6636 44.5018 20.9779C44.5124 20.9802 44.5219 20.9802 44.5313 20.9802Z" fill="white"/>
<path d="M42.5545 38.0904C42.571 37.7225 42.5639 37.3686 42.6089 37.0216C42.6787 36.4837 43.0407 36.1659 43.5541 36.195C44.0569 36.2229 44.4426 36.4535 44.4651 36.9914C44.4959 37.7284 44.5018 38.47 44.4592 39.2058C44.4284 39.7379 44.0463 39.9696 43.5281 39.9649C43.0052 39.9603 42.6704 39.7076 42.6124 39.1802C42.5722 38.8158 42.571 38.4444 42.5545 38.0904Z" fill="white"/>
<path d="M44.529 43.8315C44.5101 44.1936 44.5053 44.5452 44.4699 44.8945C44.4154 45.4277 44.0676 45.6652 43.5553 45.6862C43.0419 45.7071 42.6574 45.4324 42.6255 44.9224C42.5769 44.1691 42.584 43.4077 42.6278 42.6544C42.6574 42.1479 43.0395 41.936 43.5258 41.9197C44.0475 41.9034 44.3894 42.1677 44.4616 42.68C44.516 43.0631 44.5101 43.4543 44.529 43.8315Z" fill="white"/>
<path d="M32.8794 32.375C32.8794 32.7266 32.9031 33.0806 32.8735 33.4299C32.8298 33.9375 32.4902 34.239 31.9851 34.2588C31.461 34.2786 31.0564 34.0458 31.0138 33.5347C30.9499 32.7639 30.9558 31.9803 31.0138 31.2084C31.0493 30.7311 31.5095 30.4458 31.9898 30.4773C32.4867 30.5087 32.8345 30.8219 32.8747 31.3202C32.9019 31.6695 32.8794 32.0234 32.8794 32.375Z" fill="white"/>
<path d="M32.8782 26.7201C32.8782 27.0531 32.9019 27.3884 32.8723 27.7191C32.8286 28.2162 32.4784 28.5282 31.9815 28.555C31.4964 28.5818 31.0445 28.2989 31.0102 27.8192C30.9546 27.0473 30.9475 26.2637 31.0138 25.493C31.0575 24.9819 31.4681 24.7513 31.9898 24.7723C32.4914 24.7921 32.8155 25.1018 32.8782 25.6082C32.883 25.6455 32.8865 25.6816 32.8865 25.7188C32.8865 26.0518 32.8865 26.386 32.8865 26.719C32.8842 26.7201 32.8818 26.7201 32.8782 26.7201Z" fill="white"/>
<path d="M38.6741 26.6887C38.6741 27.0403 38.7001 27.3942 38.6682 27.7424C38.622 28.2383 38.2624 28.5562 37.7643 28.5527C37.2851 28.5492 36.8675 28.3513 36.8332 27.8483C36.7776 27.0589 36.7729 26.2602 36.8356 25.4732C36.8746 24.9819 37.3088 24.7292 37.8199 24.7746C38.3132 24.82 38.6291 25.0797 38.6693 25.578C38.6977 25.9471 38.6741 26.3185 38.6741 26.6887Z" fill="white"/>
<path d="M32.8818 38.1091C32.8818 38.4421 32.9019 38.7774 32.8771 39.108C32.8392 39.6273 32.5222 39.93 32.0206 39.9649C31.4693 40.0034 31.0469 39.7519 31.0055 39.2291C30.9463 38.4758 30.9499 37.7121 31.0019 36.9576C31.0351 36.4686 31.4657 36.1787 31.9508 36.1904C32.4642 36.2032 32.8227 36.535 32.8807 37.0531C32.8842 37.0904 32.8866 37.1264 32.8866 37.1637C32.8866 37.4781 32.8866 37.7936 32.8866 38.1079C32.8866 38.1079 32.8842 38.1091 32.8818 38.1091Z" fill="white"/>
<path d="M38.674 20.922C38.674 21.2923 38.7012 21.6648 38.6669 22.0316C38.622 22.5276 38.2588 22.8524 37.7631 22.8419C37.2911 22.8326 36.8663 22.644 36.832 22.1352C36.78 21.3458 36.7717 20.5471 36.8344 19.7589C36.8758 19.2315 37.3088 19.0371 37.8211 19.0697C38.3227 19.1011 38.6267 19.3712 38.6693 19.8672C38.6977 20.2165 38.674 20.5704 38.674 20.922Z" fill="white"/>
<path d="M38.6705 32.3739C38.6705 32.7441 38.7001 33.1167 38.6634 33.4834C38.6137 33.9806 38.2872 34.2344 37.7915 34.2577C37.3029 34.281 36.8805 34.0842 36.8415 33.5894C36.7764 32.7837 36.7788 31.9664 36.8403 31.1595C36.8794 30.6577 37.3183 30.4621 37.7915 30.4866C38.2683 30.511 38.6208 30.7567 38.6646 31.2655C38.6954 31.6322 38.6705 32.0036 38.6705 32.3739Z" fill="white"/>
<path d="M32.8854 20.9744C32.8854 21.2888 32.9008 21.6055 32.8818 21.9187C32.8487 22.4833 32.4962 22.8291 31.9602 22.8489C31.4586 22.8675 31.0268 22.552 30.9913 22.0328C30.9428 21.3144 30.9404 20.5879 30.9901 19.8695C31.0292 19.3118 31.4432 19.0324 32.0111 19.0685C32.5316 19.1011 32.8487 19.4201 32.8818 19.9755C32.9019 20.3061 32.8854 20.6414 32.8854 20.9744Z" fill="white"/>
<path d="M38.6705 38.0823C38.6717 38.4525 38.6989 38.8251 38.6646 39.1919C38.6184 39.6913 38.2931 39.9428 37.7962 39.9649C37.3112 39.987 36.8817 39.8066 36.8415 39.3071C36.7776 38.5014 36.78 37.6841 36.838 36.8785C36.8746 36.3708 37.3147 36.1822 37.7856 36.2032C38.2623 36.2241 38.6184 36.4663 38.6634 36.9739C38.6965 37.3407 38.6705 37.7121 38.6705 38.0823Z" fill="white"/>
<path d="M32.8818 43.8396C32.8806 44.1726 32.9019 44.5079 32.8759 44.8386C32.8357 45.3485 32.5068 45.6501 32.0028 45.685C31.4704 45.7211 31.0422 45.4498 31.0019 44.9271C30.9452 44.1924 30.9452 43.4473 30.9948 42.7115C31.0303 42.177 31.4314 41.9011 31.9697 41.9197C32.4985 41.9372 32.8404 42.2481 32.8783 42.7871C32.9019 43.1353 32.8818 43.488 32.8818 43.8396Z" fill="white"/>
<path d="M38.6741 43.8268C38.6741 44.1784 38.6965 44.5312 38.6693 44.8805C38.6303 45.38 38.3156 45.635 37.8223 45.6804C37.3041 45.7269 36.8758 45.4848 36.8356 44.9911C36.7729 44.2041 36.7741 43.4042 36.8332 42.6171C36.8734 42.0839 37.3112 41.8965 37.8175 41.9267C38.3132 41.9558 38.6291 42.2178 38.6681 42.7173C38.6965 43.0852 38.6741 43.4566 38.6741 43.8268Z" fill="white"/>
</g>
</g>
</svg>
