<svg width="58" height="58" viewBox="0 0 58 58" fill="none" xmlns="http://www.w3.org/2000/svg" stroke-width="0">
<path d="M57.9988 38.4522C57.4935 39.1574 57.0012 39.872 56.4795 40.5654C55.9848 41.2234 55.3747 41.313 54.7104 40.8224C53.9813 40.2847 53.2747 39.7187 52.4949 39.1173C52.4949 44.5853 52.4949 49.9908 52.4949 55.4729C53.151 55.4729 53.8235 55.467 54.4949 55.4764C54.7186 55.48 54.953 55.4847 55.1638 55.5507C55.5761 55.6793 55.8352 56.0165 55.7068 56.4127C55.6126 56.7005 55.3052 56.9505 55.0378 57.1379C54.8953 57.2382 54.635 57.1745 54.4277 57.1745C36.9632 57.1757 19.4999 57.1674 2.03544 57.1934C0.816416 57.1957 0.113266 56.4564 0.208669 55.3715C0.264025 54.7335 0.183935 54.0838 0.232225 53.4459C0.260492 53.0673 0.421851 52.6994 0.521965 52.3256C0.564366 52.1676 0.637389 52.0072 0.635034 51.848C0.618545 50.4082 1.23925 49.354 2.49243 48.65C2.66557 48.5533 2.82339 48.3481 2.89053 48.1583C3.32632 46.9331 4.10367 46.0027 5.19667 45.3105C5.36392 45.2044 5.53588 44.9485 5.53588 44.761C5.55237 35.7636 5.55001 26.7663 5.54883 17.7678C5.54883 17.7135 5.53234 17.6593 5.50761 17.5072C4.83508 18.0272 4.2026 18.5166 3.56894 19.0047C2.55839 19.7818 2.09551 19.7205 1.31463 18.7076C1.00369 18.3031 0.689213 17.9022 0.384161 17.493C-0.195318 16.7124 -0.127006 16.1499 0.642101 15.5508C2.32401 14.2384 4.00944 12.9283 5.70666 11.6359C6.00347 11.4095 6.14009 11.1831 6.13538 10.7975C6.11418 8.86946 6.12242 6.94146 6.12949 5.01345C6.13067 4.71158 6.10476 4.50522 5.75613 4.36489C5.24614 4.15853 4.98584 3.71043 4.97407 3.15149C4.96111 2.56542 4.95286 1.97935 4.97289 1.39447C4.9988 0.629163 5.58063 0.0230501 6.34621 0.0171541C8.65117 -0.00525087 10.955 -0.00407166 13.2576 0.011258C14.0125 0.0159749 14.5979 0.55841 14.6427 1.3131C14.6839 1.98879 14.6992 2.68098 14.5956 3.34488C14.5414 3.68921 14.2717 4.15381 13.9796 4.27527C13.3223 4.55003 13.4931 4.99812 13.5073 5.56414C13.8724 5.28585 14.1692 5.06416 14.4625 4.83657C15.7168 3.86609 16.9676 2.8897 18.2244 1.92275C19.335 1.06901 20.3008 1.06901 21.4162 1.93219C27.2546 6.45091 33.0906 10.9732 38.9266 15.4954C39.7864 16.1617 39.8441 16.6145 39.1952 17.5001C38.8383 17.9871 38.4838 18.4776 38.114 18.9564C37.6028 19.6168 37.0151 19.7099 36.3472 19.217C35.6205 18.6793 34.9139 18.1156 34.0835 17.4753C34.0835 18.0001 34.0906 18.4187 34.0823 18.8373C34.0694 19.5094 33.7584 19.8927 33.2355 19.8962C32.7031 19.8998 32.3922 19.5271 32.3863 18.8538C32.3792 18.0791 32.4016 17.3032 32.3722 16.5296C32.3651 16.3362 32.2638 16.0803 32.1177 15.9659C28.0661 12.8092 24.0039 9.66661 19.9428 6.52284C19.9145 6.50043 19.8756 6.491 19.7814 6.44619C19.2432 6.86245 18.6778 7.2964 18.1148 7.73271C14.6226 10.439 11.1316 13.1488 7.63355 15.848C7.37443 16.0485 7.24134 16.2407 7.24134 16.5874C7.25194 25.7545 7.24958 34.9229 7.24958 44.09C7.24958 44.2374 7.24958 44.3848 7.24958 44.5452C7.74191 44.5876 8.19065 44.6006 8.63115 44.6678C10.0857 44.8883 11.2471 45.6159 12.088 46.8152C12.313 47.1347 12.5344 47.2291 12.8842 47.1418C13.0114 47.11 13.161 47.0593 13.2741 47.097C14.1786 47.4036 14.7557 46.9154 15.4447 46.4036C18.7155 43.9733 23.3832 46.0581 23.8024 50.0993C23.8566 50.6169 23.8095 51.144 23.8095 51.7313C24.0262 51.7313 24.2288 51.7266 24.4302 51.7325C25.3913 51.7572 25.9661 52.3221 26.0038 53.289C26.0179 53.6475 26.0073 54.0072 26.0073 54.3668C26.0073 54.7064 26.0073 55.046 26.0073 55.4281C28.1591 55.4281 30.2792 55.4281 32.464 55.4281C32.464 55.1923 32.464 54.9706 32.464 54.7477C32.464 50.703 32.4628 46.6572 32.464 42.6125C32.464 41.2458 32.9752 40.7352 34.3379 40.7352C36.9244 40.734 39.5108 40.734 42.0973 40.7352C43.3493 40.7364 43.897 41.2741 43.8993 42.5193C43.904 44.8447 43.9017 47.1689 43.8993 49.4943C43.8993 49.6641 43.8911 49.8351 43.864 50.0014C43.7898 50.4577 43.5107 50.7066 43.0513 50.7077C42.5931 50.7077 42.3081 50.4625 42.2363 50.0061C42.2045 49.8021 42.2033 49.5922 42.2033 49.3847C42.2009 47.3057 42.2021 45.2256 42.2021 43.1467C42.2021 42.925 42.2021 42.7045 42.2021 42.4604C39.5049 42.4604 36.8867 42.4604 34.2178 42.4604C34.2178 46.788 34.2178 51.0992 34.2178 55.4411C36.8643 55.4411 39.499 55.4411 42.2056 55.4411C42.2056 54.9564 42.1915 54.4871 42.2092 54.0201C42.2327 53.3987 42.5189 53.0732 43.0207 53.0579C43.5472 53.0414 43.8687 53.3786 43.897 54.0166C43.917 54.4682 43.9005 54.9222 43.9005 55.4234C46.1831 55.4234 48.4327 55.4234 50.7188 55.4234C50.7282 55.2583 50.7447 55.0932 50.7447 54.9281C50.7459 49.3705 50.7506 43.8129 50.7318 38.2565C50.7306 38.0018 50.5881 37.6598 50.3937 37.5077C46.3927 34.3781 42.3752 31.2709 38.3601 28.1601C38.3165 28.1259 38.2635 28.1023 38.174 28.0504C38.0233 28.1613 37.856 28.278 37.6947 28.403C32.424 32.4843 27.1545 36.5655 21.885 40.6467C20.9522 41.3696 20.441 41.3 19.7131 40.3519C19.4257 39.9769 19.1372 39.6031 18.8498 39.2282C18.1278 38.286 18.1937 37.7836 19.1478 37.0443C22.879 34.1517 26.6115 31.2626 30.3428 28.37C31.013 27.85 31.9364 27.4443 32.2685 26.7569C32.6101 26.0482 32.3733 25.0588 32.3875 24.1921C32.3934 23.8336 32.378 23.4739 32.3922 23.1143C32.4134 22.5589 32.7196 22.2252 33.199 22.2087C33.7031 22.1921 34.0576 22.527 34.0776 23.1084C34.1035 23.8442 34.0835 24.5812 34.0835 25.3996C34.2531 25.2994 34.378 25.2416 34.4851 25.159C35.2189 24.5954 35.9433 24.0199 36.6806 23.461C37.6723 22.7098 38.6769 22.6862 39.6474 23.4362C45.5636 28.0092 51.4726 32.5916 57.3769 37.1787C57.6196 37.3674 57.7939 37.6457 58 37.8827C57.9988 38.0749 57.9988 38.2636 57.9988 38.4522ZM1.94711 55.4316C9.41792 55.4316 16.8393 55.4316 24.2724 55.4316C24.2724 54.7559 24.2724 54.1215 24.2724 53.4352C24.0321 53.4352 23.8295 53.4352 23.627 53.4352C20.4386 53.4352 17.2491 53.4364 14.0608 53.4341C13.3706 53.4329 13.0079 53.1475 12.9937 52.6169C12.9796 52.0662 13.3636 51.7478 14.0702 51.7348C14.3906 51.7289 14.7133 51.7112 15.0325 51.7395C15.3882 51.7714 15.4801 51.5957 15.5166 51.2844C15.698 49.7231 14.1892 48.4696 12.631 48.8977C11.5427 49.1972 11.4909 49.1748 10.9597 48.1783C10.2871 46.9154 8.83962 46.1418 7.47808 46.3175C5.97402 46.5121 4.75853 47.5404 4.44523 48.9755C4.31332 49.5804 4.03653 49.9365 3.44763 50.1323C2.71033 50.3764 2.38643 50.8976 2.38172 51.7325C2.5843 51.7325 2.78806 51.7325 2.99182 51.7325C5.06711 51.7325 7.1424 51.7313 9.21887 51.7348C9.46268 51.7348 9.71473 51.7325 9.94676 51.7926C10.3884 51.907 10.6016 52.2242 10.5557 52.6817C10.5133 53.1145 10.2518 53.3598 9.8278 53.4187C9.66055 53.4423 9.48859 53.4329 9.31899 53.4329C7.07409 53.4341 4.82802 53.4329 2.58312 53.4329C2.38054 53.4329 2.17914 53.4329 1.94829 53.4329C1.94711 54.1286 1.94711 54.763 1.94711 55.4316ZM2.60668 17.5897C2.81044 17.4364 2.96355 17.3267 3.11313 17.2112C8.36614 13.1417 13.6192 9.07111 18.8722 5.00048C19.7308 4.33541 19.8968 4.33187 20.7413 4.98633C24.2936 7.73742 27.8459 10.4885 31.3981 13.2396C33.2602 14.6818 35.1223 16.1228 37.0139 17.5873C37.2447 17.2725 37.4508 16.9918 37.664 16.7006C37.5498 16.598 37.485 16.5319 37.4132 16.4753C31.742 12.0816 26.0674 7.69261 20.4057 3.2871C19.931 2.918 19.5918 3.00644 19.1619 3.34134C14.2881 7.13131 9.40497 10.9083 4.52532 14.6888C3.66317 15.3575 2.80102 16.0261 1.92591 16.7041C2.16382 17.0131 2.36876 17.2807 2.60668 17.5897ZM20.9698 39.1869C21.1583 39.0466 21.3102 38.9392 21.4563 38.826C26.7564 34.7224 32.0565 30.6176 37.3554 26.5139C38.068 25.9621 38.2883 25.9609 38.9961 26.5092C43.0113 29.62 47.0264 32.7307 51.0427 35.8415C52.4726 36.9487 53.9036 38.0548 55.3735 39.1916C55.6043 38.8744 55.8093 38.5937 56.0213 38.3013C55.867 38.1704 55.7563 38.069 55.6373 37.977C50.0098 33.6175 44.3799 29.2615 38.7606 24.8913C38.3154 24.5458 37.9915 24.5859 37.5663 24.9173C33.6041 28.0033 29.6279 31.0739 25.6575 34.1481C23.8825 35.5231 22.1088 36.898 20.2949 38.3048C20.5293 38.6102 20.7413 38.8885 20.9698 39.1869ZM15.9689 48.183C16.9888 49.163 17.3186 50.3646 17.2115 51.7124C17.3952 51.7219 17.5059 51.7313 17.6166 51.7313C18.9758 51.7325 20.335 51.7431 21.693 51.7148C21.8332 51.7112 22.0581 51.4907 22.0935 51.3363C22.4209 49.8917 21.6624 48.2915 20.3291 47.5451C18.8816 46.735 17.2374 46.9614 15.9689 48.183ZM7.86322 4.55592C7.86322 6.35421 7.86322 8.0959 7.86322 9.86471C7.95391 9.83287 8.0128 9.82816 8.05167 9.7975C9.21769 8.90012 10.3825 8.00156 11.5427 7.09711C11.6404 7.02164 11.7676 6.90137 11.77 6.79995C11.7888 6.05469 11.7806 5.30826 11.7806 4.5571C10.4355 4.55592 9.17412 4.55592 7.86322 4.55592ZM12.9337 2.8107C12.9337 2.43099 12.9337 2.08312 12.9337 1.74469C10.8266 1.74469 8.76071 1.74469 6.69366 1.74469C6.69366 2.11732 6.69366 2.45104 6.69366 2.8107C8.77248 2.8107 10.823 2.8107 12.9337 2.8107Z" fill="#28A3A1"/>
<path d="M25.5197 21.1462C25.5197 23.3761 25.522 25.6071 25.5185 27.837C25.5162 29.0516 24.9732 29.5905 23.7577 29.5917C21.1147 29.594 18.4717 29.5952 15.8287 29.5917C14.6874 29.5905 14.1056 29.0327 14.1032 27.9042C14.0962 23.3867 14.0962 18.8691 14.1032 14.3516C14.1056 13.2396 14.6698 12.6995 15.7887 12.6983C18.4693 12.696 21.15 12.696 23.8307 12.6983C24.9814 12.6995 25.515 13.2337 25.5173 14.3976C25.5232 16.6475 25.5197 18.8974 25.5197 21.1462ZM23.7918 14.4424C22.7436 14.4424 21.7248 14.4424 20.7119 14.4424C20.7119 15.6027 20.7119 16.7194 20.7119 17.8244C21.7696 17.8244 22.773 17.8244 23.7918 17.8244C23.7918 16.6723 23.7918 15.5685 23.7918 14.4424ZM23.7824 27.8677C23.7824 26.6885 23.7824 25.5694 23.7824 24.4256C22.7389 24.4256 21.733 24.4256 20.7084 24.4256C20.7084 25.5894 20.7084 26.7238 20.7084 27.8677C21.7484 27.8677 22.7401 27.8677 23.7824 27.8677ZM18.9169 17.8373C18.9169 16.6852 18.9169 15.5638 18.9169 14.4377C17.864 14.4377 16.8546 14.4377 15.8346 14.4377C15.8346 15.5839 15.8346 16.6923 15.8346 17.8373C16.877 17.8373 17.8863 17.8373 18.9169 17.8373ZM15.837 24.4291C15.837 25.5835 15.837 26.705 15.837 27.8571C16.8805 27.8571 17.8875 27.8571 18.924 27.8571C18.924 26.7014 18.924 25.58 18.924 24.4291C17.8828 24.4291 16.8758 24.4291 15.837 24.4291ZM20.6919 19.6014C20.6919 20.6556 20.6919 21.6474 20.6919 22.6497C21.7484 22.6497 22.7707 22.6497 23.7789 22.6497C23.7789 21.6108 23.7789 20.6179 23.7789 19.6014C22.7436 19.6014 21.7507 19.6014 20.6919 19.6014ZM15.8252 22.665C16.8793 22.665 17.8875 22.665 18.9122 22.665C18.9122 21.6297 18.9122 20.6262 18.9122 19.6227C17.8604 19.6227 16.8534 19.6227 15.8252 19.6227C15.8252 20.645 15.8252 21.6226 15.8252 22.665Z" fill="#28A3A1"/>
<path d="M34.6653 48.5179C34.6665 48.1783 34.6465 47.8375 34.6712 47.4991C34.7066 47.0038 35.0587 46.6631 35.5016 46.6583C35.9385 46.6536 36.3237 46.9921 36.3449 47.4826C36.3767 48.1795 36.3779 48.88 36.3437 49.5757C36.319 50.0745 35.9468 50.3846 35.4898 50.3752C35.0363 50.3646 34.703 50.0403 34.6701 49.5368C34.6465 49.1983 34.6642 48.8576 34.6653 48.5179Z" fill="#28A3A1"/>
</svg>
