<svg width="58" height="58" viewBox="0 0 58 58" fill="none" xmlns="http://www.w3.org/2000/svg" >
<path d="M35.7977 0.00232437C36.2346 0.28706 36.3764 0.688014 36.3625 1.20635C36.3334 2.22094 36.3543 3.23669 36.3543 4.321C36.603 4.321 36.8029 4.321 37.004 4.321C39.9862 4.321 42.9695 4.31984 45.9517 4.32217C46.9047 4.32217 47.1638 4.57901 47.1661 5.52619C47.1696 6.75346 47.1708 7.98073 47.1661 9.20683C47.1627 10.104 46.9151 10.3493 46.0226 10.3586C45.7064 10.362 45.3892 10.3586 44.9987 10.3586C44.9987 10.9629 45.0068 11.5033 44.9963 12.0437C44.9859 12.6306 44.6767 12.9967 44.1944 13.0188C43.6924 13.042 43.324 12.6608 43.3042 12.0612C43.2868 11.5173 43.3007 10.9722 43.3007 10.3934C40.9717 10.3934 38.6961 10.3934 36.3532 10.3934C36.3532 11.4289 36.3543 12.4412 36.3532 13.4546C36.352 14.4367 36.0928 14.697 35.1131 14.697C31.0362 14.6982 26.9581 14.6982 22.8811 14.697C21.9037 14.697 21.6504 14.4378 21.6492 13.4465C21.6481 12.447 21.6492 11.4487 21.6492 10.4039C19.3423 10.4039 17.0702 10.4039 14.7505 10.4039C14.7505 25.6796 14.7505 40.9554 14.7505 56.2637C17.0249 56.2637 19.2993 56.2637 21.6481 56.2637C21.6481 56.0394 21.6481 55.8209 21.6481 55.6024C21.6481 51.9218 21.6481 48.24 21.6481 44.5593C21.6481 43.5436 21.8956 43.3007 22.9265 43.2995C24.3048 43.2984 25.682 43.2984 27.0604 43.2995C27.2114 43.2995 27.3637 43.2914 27.5124 43.3112C27.9971 43.3774 28.3248 43.7458 28.3062 44.1863C28.2876 44.6337 27.9494 44.9777 27.4474 44.987C26.334 45.0068 25.2194 44.9963 24.1061 44.9975C23.8818 44.9975 23.6586 44.9975 23.3902 44.9975C23.3902 45.8784 23.3902 46.7164 23.3902 47.5973C27.1103 47.5973 30.8386 47.5973 34.6099 47.5973C34.6099 46.7524 34.6099 45.9168 34.6099 44.9975C34.0125 44.9975 33.4152 44.9975 32.8178 44.9975C32.289 44.9975 31.7602 45.0079 31.2326 44.9917C30.6654 44.9742 30.3482 44.6767 30.3319 44.1863C30.3145 43.6784 30.6503 43.3425 31.2256 43.303C31.4139 43.2902 31.6033 43.2984 31.7916 43.2984C32.905 43.2984 34.0195 43.2961 35.1329 43.2984C36.0836 43.3007 36.352 43.5645 36.352 44.5047C36.3532 48.1854 36.3532 51.8672 36.3532 55.5478C36.3532 55.7721 36.3532 55.9964 36.3532 56.2579C38.6613 56.2579 40.9357 56.2579 43.2984 56.2579C43.2984 56.0289 43.2984 55.793 43.2984 55.5571C43.2984 42.5127 43.2984 29.4684 43.2996 16.4252C43.2996 16.2183 43.2879 16.0068 43.317 15.8034C43.3879 15.3083 43.74 15.0178 44.2095 15.0433C44.6767 15.0689 44.9708 15.3792 44.9917 15.908C45.0091 16.3566 44.9952 16.8064 44.9952 17.3247C45.2718 17.3247 45.4914 17.3247 45.7111 17.3247C49.4115 17.3247 53.1107 17.3328 56.8111 17.3154C57.3318 17.3131 57.7316 17.4374 57.9989 17.8953C57.9989 31.0733 57.9989 44.2502 57.9989 57.4282C57.7153 57.9105 57.2783 58.0023 56.7495 58.0023C38.2708 57.993 19.792 57.9954 1.31331 57.9942C0.215044 57.9942 0.00352646 57.7792 0.00352646 56.6647C0.00352646 43.9992 0.00352646 31.3337 0.00352646 18.6682C0.00352646 18.4985 -0.0069332 18.3277 0.0081752 18.1591C0.0558248 17.6571 0.328938 17.3386 0.839137 17.3328C2.38717 17.3154 3.9352 17.3166 5.48207 17.3317C5.99924 17.3363 6.3537 17.7198 6.34208 18.1882C6.33046 18.6566 5.97832 19.0075 5.44371 19.0168C4.40588 19.0343 3.36805 19.0226 2.32906 19.0238C2.13032 19.0238 1.93159 19.0238 1.74448 19.0238C1.74448 19.9431 1.74448 20.781 1.74448 21.5957C5.51344 21.5957 9.23941 21.5957 12.9712 21.5957C12.9712 20.7264 12.9712 19.9047 12.9712 19.0238C12.755 19.0238 12.5714 19.0238 12.3878 19.0238C11.3871 19.0238 10.3865 19.0296 9.38701 19.0215C8.72572 19.0168 8.35731 18.6926 8.36661 18.151C8.37591 17.628 8.72688 17.3317 9.36725 17.327C10.1029 17.3212 10.8397 17.3259 11.5754 17.3259C12.0379 17.3259 12.5005 17.3259 12.9642 17.3259C12.9642 14.9643 12.9642 12.6922 12.9642 10.3562C12.5726 10.3562 12.2169 10.3644 11.8625 10.3551C11.1152 10.3353 10.8444 10.068 10.8386 9.31491C10.8293 8.05046 10.8328 6.786 10.8363 5.52154C10.8386 4.57436 11.0954 4.321 12.0519 4.31984C15.0341 4.31868 18.0162 4.31868 20.9984 4.31868C21.1995 4.31868 21.3993 4.31868 21.6469 4.31868C21.6469 3.2332 21.6678 2.21745 21.6388 1.20286C21.6237 0.685689 21.7643 0.283573 22.2036 0C26.7361 0.00232437 31.2675 0.00232437 35.7977 0.00232437ZM45.0428 23.3785C45.0428 34.3635 45.0428 45.3171 45.0428 56.2602C48.8141 56.2602 52.5413 56.2602 56.2707 56.2602C56.2707 45.2811 56.2707 34.3414 56.2707 23.3785C52.5145 23.3785 48.7886 23.3785 45.0428 23.3785ZM1.74215 23.3739C1.74215 34.3612 1.74215 45.3148 1.74215 56.2579C5.50763 56.2579 9.23476 56.2579 12.9689 56.2579C12.9689 45.2787 12.9689 34.3403 12.9689 23.3739C9.22198 23.3739 5.5088 23.3739 1.74215 23.3739ZM23.3727 12.9549C27.1673 12.9549 30.8932 12.9549 34.6111 12.9549C34.6111 9.18243 34.6111 5.4553 34.6111 1.74212C30.8398 1.74212 27.1126 1.74212 23.3727 1.74212C23.3727 5.49597 23.3727 9.20916 23.3727 12.9549ZM23.3727 56.2521C24.98 56.2521 26.549 56.2521 28.104 56.2521C28.104 53.9335 28.104 51.6615 28.104 49.3836C26.5037 49.3836 24.9498 49.3836 23.3727 49.3836C23.3727 51.687 23.3727 53.9452 23.3727 56.2521ZM34.6215 49.3766C33.0328 49.3766 31.4778 49.3766 29.9007 49.3766C29.9007 51.6963 29.9007 53.98 29.9007 56.2614C31.5045 56.2614 33.0595 56.2614 34.6215 56.2614C34.6215 53.9498 34.6215 51.6766 34.6215 49.3766ZM56.2777 19.0622C52.5041 19.0622 48.7793 19.0622 45.0393 19.0622C45.0393 19.9338 45.0393 20.7706 45.0393 21.612C48.8048 21.612 52.5296 21.612 56.2777 21.612C56.2777 20.7543 56.2777 19.9315 56.2777 19.0622ZM12.5726 8.61877C15.6291 8.61877 18.6159 8.61877 21.6109 8.61877C21.6109 7.74015 21.6109 6.90338 21.6109 6.05034C18.5845 6.05034 15.5966 6.05034 12.5726 6.05034C12.5726 6.91733 12.5726 7.75294 12.5726 8.61877ZM36.3776 8.62458C39.4248 8.62458 42.4128 8.62458 45.4298 8.62458C45.4298 7.75178 45.4298 6.91616 45.4298 6.06312C42.3907 6.06312 39.3888 6.06312 36.3776 6.06312C36.3776 6.93011 36.3776 7.7541 36.3776 8.62458Z" fill="#28A3A1"/>
<path d="M25.9795 22.5173C25.9795 21.1599 25.9749 19.8025 25.9819 18.445C25.9865 17.6036 26.2654 17.3317 27.1068 17.3293C28.3887 17.327 29.6706 17.3247 30.9525 17.3293C31.7196 17.3317 32.0194 17.6164 32.0217 18.3869C32.0299 21.139 32.0299 23.891 32.0206 26.6443C32.0182 27.3811 31.7196 27.6693 30.9816 27.6751C29.6811 27.6856 28.3806 27.6832 27.079 27.6763C26.2654 27.6716 25.9865 27.3973 25.9819 26.5896C25.9737 25.2322 25.9795 23.8748 25.9795 22.5173ZM27.7054 21.605C28.6061 21.605 29.4428 21.605 30.2808 21.605C30.2808 20.7287 30.2808 19.8943 30.2808 19.0691C29.3987 19.0691 28.5619 19.0691 27.7054 19.0691C27.7054 19.9303 27.7054 20.7508 27.7054 21.605ZM30.2854 25.9528C30.2854 25.0625 30.2854 24.2269 30.2854 23.382C29.4091 23.382 28.5724 23.382 27.7182 23.382C27.7182 24.2548 27.7182 25.0904 27.7182 25.9528C28.5805 25.9528 29.4033 25.9528 30.2854 25.9528Z" fill="#28A3A1"/>
<path d="M32.024 35.5733C32.024 36.8924 32.0287 38.2126 32.0229 39.5317C32.0194 40.4033 31.7428 40.6695 30.8619 40.6706C29.5986 40.673 28.3353 40.6741 27.0731 40.6706C26.2747 40.6683 25.9842 40.3847 25.9818 39.577C25.976 36.8622 25.976 34.1473 25.9818 31.4336C25.983 30.6108 26.2561 30.3295 27.0569 30.3249C28.3573 30.3167 29.6578 30.3167 30.9595 30.3249C31.7347 30.3295 32.0171 30.6108 32.0229 31.3883C32.031 32.7829 32.024 34.1775 32.024 35.5733ZM27.7088 38.9413C28.5898 38.9413 29.4277 38.9413 30.2889 38.9413C30.2889 38.0743 30.2889 37.2376 30.2889 36.3868C29.4138 36.3868 28.577 36.3868 27.7088 36.3868C27.7088 37.2387 27.7088 38.0592 27.7088 38.9413ZM30.2796 34.6343C30.2796 33.7731 30.2796 32.9235 30.2796 32.0635C29.4056 32.0635 28.57 32.0635 27.7193 32.0635C27.7193 32.9421 27.7193 33.7777 27.7193 34.6343C28.5665 34.6343 29.3731 34.6343 30.2796 34.6343Z" fill="#28A3A1"/>
<path d="M23.3483 22.5208C23.3483 23.8968 23.353 25.2729 23.3472 26.6489C23.3437 27.3822 23.0589 27.6693 22.3163 27.6751C20.9972 27.6844 19.677 27.6844 18.3579 27.6751C17.6223 27.6693 17.3329 27.3753 17.3317 26.6419C17.3271 23.8713 17.3271 21.0995 17.3329 18.3288C17.334 17.635 17.6385 17.3352 18.3358 17.3317C19.6747 17.3247 21.0123 17.3247 22.3512 17.3317C23.045 17.3352 23.3425 17.635 23.346 18.3358C23.353 19.7304 23.3483 21.1262 23.3483 22.5208ZM19.0773 19.0563C19.0773 19.9315 19.0773 20.7799 19.0773 21.6166C19.9478 21.6166 20.7694 21.6166 21.619 21.6166C21.619 20.7531 21.619 19.9187 21.619 19.0563C20.7567 19.0563 19.9211 19.0563 19.0773 19.0563ZM19.0727 23.3715C19.0727 24.2757 19.0727 25.1137 19.0727 25.9295C19.9513 25.9295 20.7857 25.9295 21.6039 25.9295C21.6039 25.0439 21.6039 24.2095 21.6039 23.3715C20.7357 23.3715 19.9152 23.3715 19.0727 23.3715Z" fill="#28A3A1"/>
<path d="M34.6552 35.4583C34.6552 34.1008 34.6517 32.7434 34.6564 31.386C34.6587 30.6131 34.9353 30.3295 35.7082 30.3249C37.0272 30.3167 38.3475 30.3156 39.6666 30.326C40.372 30.3319 40.6695 30.6282 40.6707 31.322C40.6765 34.1124 40.6765 36.9017 40.6707 39.6921C40.6695 40.3545 40.3604 40.6648 39.7026 40.6683C38.3452 40.6776 36.9877 40.6765 35.6303 40.6683C34.9678 40.6648 34.6622 40.3604 34.6575 39.6991C34.6494 38.2859 34.6552 36.8715 34.6552 35.4583ZM36.3753 34.6157C37.2678 34.6157 38.1023 34.6157 38.9367 34.6157C38.9367 33.7382 38.9367 32.9003 38.9367 32.0635C38.0639 32.0635 37.2295 32.0635 36.3753 32.0635C36.3753 32.9282 36.3753 33.751 36.3753 34.6157ZM36.3927 36.3729C36.3927 37.2666 36.3927 38.1011 36.3927 38.9344C37.2678 38.9344 38.1023 38.9344 38.9355 38.9344C38.9355 38.0604 38.9355 37.2259 38.9355 36.3729C38.0767 36.3729 37.255 36.3729 36.3927 36.3729Z" fill="#28A3A1"/>
<path d="M23.3483 35.514C23.3483 36.8901 23.353 38.2661 23.346 39.6421C23.3425 40.3743 23.0485 40.6672 22.3163 40.6695C20.9972 40.6753 19.677 40.6753 18.3579 40.6695C17.6292 40.666 17.3329 40.3696 17.3317 39.6363C17.3271 36.8843 17.3282 34.1322 17.3317 31.3801C17.3329 30.6119 17.6153 30.3295 18.3928 30.3249C19.6933 30.3167 20.9937 30.3167 22.2954 30.3249C23.0694 30.3295 23.346 30.6131 23.3483 31.386C23.3518 32.762 23.3483 34.138 23.3483 35.514ZM19.0506 34.6168C19.9396 34.6168 20.7753 34.6168 21.612 34.6168C21.612 33.7405 21.612 32.9038 21.612 32.0635C20.7392 32.0635 19.9048 32.0635 19.0506 32.0635C19.0506 32.927 19.0506 33.7498 19.0506 34.6168ZM21.6283 36.395C20.7311 36.395 19.8966 36.395 19.0692 36.395C19.0692 37.2713 19.0692 38.1057 19.0692 38.932C19.9455 38.932 20.7811 38.932 21.6283 38.932C21.6283 38.0708 21.6283 37.2492 21.6283 36.395Z" fill="#28A3A1"/>
<path d="M34.6552 22.4662C34.6552 21.1088 34.6517 19.7513 34.6564 18.3939C34.6587 17.6176 34.94 17.3317 35.7058 17.3293C37.0249 17.3247 38.3452 17.3235 39.6642 17.3305C40.3639 17.334 40.6695 17.6327 40.6707 18.3253C40.6765 21.1157 40.6765 23.905 40.6707 26.6954C40.6695 27.3602 40.3708 27.6658 39.7049 27.6728C38.3475 27.6856 36.9901 27.6856 35.6326 27.6728C34.9376 27.6658 34.6599 27.366 34.6564 26.6512C34.6506 25.2566 34.6552 23.862 34.6552 22.4662ZM36.3904 23.3692C36.3904 24.2583 36.3904 25.0951 36.3904 25.94C37.2608 25.94 38.0953 25.94 38.939 25.94C38.939 25.0637 38.939 24.2281 38.939 23.3692C38.0813 23.3692 37.2608 23.3692 36.3904 23.3692ZM38.9379 21.6259C38.9379 20.7369 38.9379 19.9013 38.9379 19.0645C38.0651 19.0645 37.2295 19.0645 36.3927 19.0645C36.3927 19.9361 36.3927 20.7717 36.3927 21.6259C37.2515 21.6259 38.0732 21.6259 38.9379 21.6259Z" fill="#28A3A1"/>
<path d="M47.6438 44.1572C47.6438 42.7998 47.6392 41.4423 47.6461 40.0849C47.6508 39.2493 47.9332 38.975 48.7746 38.9727C50.0379 38.9692 51.3012 38.9692 52.5633 38.9727C53.3641 38.975 53.6744 39.2691 53.6755 40.0524C53.6813 42.7858 53.6813 45.5193 53.6755 48.2527C53.6744 49.0233 53.3815 49.3278 52.6214 49.3347C51.3024 49.3464 49.9821 49.3475 48.663 49.3336C47.9285 49.3254 47.6508 49.0349 47.6461 48.2841C47.6368 46.9093 47.6438 45.5332 47.6438 44.1572ZM51.9357 47.6135C51.9357 46.7187 51.9357 45.8842 51.9357 45.0021C51.1455 45.0021 50.397 44.9928 49.6497 45.0126C49.5475 45.0149 49.365 45.1648 49.3615 45.2497C49.3394 46.0295 49.3487 46.8093 49.3487 47.6124C50.2552 47.6135 51.0746 47.6135 51.9357 47.6135ZM51.9543 40.709C51.0606 40.709 50.2239 40.709 49.3859 40.709C49.3859 41.583 49.3859 42.4174 49.3859 43.2577C50.2634 43.2577 51.0978 43.2577 51.9543 43.2577C51.9543 42.3953 51.9543 41.5748 51.9543 40.709Z" fill="#28A3A1"/>
<path d="M53.6779 31.15C53.6779 32.5075 53.6814 33.8649 53.6767 35.2223C53.6732 36.0498 53.3745 36.3497 52.5517 36.3531C51.2884 36.359 50.0251 36.3578 48.7618 36.3531C47.9332 36.3497 47.6461 36.0649 47.6438 35.2258C47.6391 32.511 47.638 29.7961 47.6438 27.0812C47.6461 26.2642 47.9216 25.9865 48.7293 25.9818C50.0112 25.9737 51.2931 25.9748 52.575 25.9818C53.3745 25.9865 53.6709 26.2828 53.6744 27.0778C53.6825 28.4352 53.6779 29.7926 53.6779 31.15ZM51.9474 27.7146C51.0815 27.7146 50.2471 27.7146 49.3778 27.7146C49.3778 28.5816 49.3778 29.4172 49.3778 30.2656C50.2587 30.2656 51.1048 30.2656 51.9474 30.2656C51.9474 29.3893 51.9474 28.57 51.9474 27.7146ZM51.9485 34.6215C51.9485 33.7371 51.9485 32.9154 51.9485 32.0717C51.0699 32.0717 50.2215 32.0717 49.3731 32.0717C49.3731 32.9445 49.3731 33.7661 49.3731 34.6215C50.239 34.6215 51.0734 34.6215 51.9485 34.6215Z" fill="#28A3A1"/>
<path d="M10.3609 31.193C10.3609 32.5319 10.3656 33.8707 10.3598 35.2084C10.3563 36.0777 10.0762 36.3497 9.20105 36.3532C7.95636 36.3567 6.71282 36.3578 5.46812 36.3532C4.63135 36.3497 4.32918 36.058 4.32802 35.2386C4.32337 32.5238 4.32337 29.8089 4.32802 27.094C4.32918 26.2875 4.62089 25.9876 5.41117 25.9818C6.69306 25.9737 7.97495 25.9737 9.25684 25.9806C10.0739 25.9853 10.3539 26.2572 10.3586 27.0638C10.3667 28.441 10.3609 29.817 10.3609 31.193ZM8.60485 30.2842C8.60485 29.4091 8.60485 28.5642 8.60485 27.7332C7.71578 27.7332 6.88482 27.7332 6.05502 27.7332C6.05502 28.6083 6.05502 29.4277 6.05502 30.2842C6.91969 30.2842 7.75297 30.2842 8.60485 30.2842ZM8.63623 32.0682C7.73554 32.0682 6.90226 32.0682 6.06897 32.0682C6.06897 32.9503 6.06897 33.7836 6.06897 34.6122C6.94874 34.6122 7.78435 34.6122 8.63623 34.6122C8.63623 33.7487 8.63623 32.927 8.63623 32.0682Z" fill="#28A3A1"/>
<path d="M10.3609 44.1514C10.3609 45.5088 10.3656 46.8663 10.3586 48.2237C10.3539 49.0709 10.0878 49.3336 9.23244 49.3382C7.96914 49.3452 6.70585 49.3464 5.44372 49.3382C4.61159 49.3324 4.32918 49.043 4.32802 48.2039C4.32453 45.5077 4.32453 42.8126 4.32802 40.1163C4.32918 39.2551 4.6174 38.9762 5.49253 38.9739C6.69888 38.9715 7.90522 38.9727 9.11157 38.9739C10.1273 38.975 10.3598 39.2109 10.3609 40.2499C10.3621 41.5493 10.3609 42.8509 10.3609 44.1514ZM6.05967 45.0312C6.05967 45.9109 6.05967 46.7442 6.05967 47.6031C6.93015 47.6031 7.7646 47.6031 8.62113 47.6031C8.62113 46.7303 8.62113 45.8958 8.62113 45.0312C7.76111 45.0312 6.94177 45.0312 6.05967 45.0312ZM6.06316 40.6962C6.06316 41.5818 6.06316 42.4174 6.06316 43.2612C6.93829 43.2612 7.7739 43.2612 8.61997 43.2612C8.61997 42.3872 8.61997 41.5539 8.61997 40.6962C7.75763 40.6962 6.9348 40.6962 6.06316 40.6962Z" fill="#28A3A1"/>
<path d="M30.3296 8.21549C29.4207 8.21549 28.5979 8.21549 27.6763 8.21549C27.6763 8.6362 27.6891 9.04296 27.6728 9.44856C27.6507 10.0087 27.3474 10.3307 26.8605 10.3446C26.377 10.3586 26.0028 10.0378 25.9946 9.49738C25.9702 8.0644 25.9714 6.6291 25.9946 5.19613C26.0028 4.67315 26.4002 4.321 26.8581 4.33263C27.3218 4.34541 27.6461 4.69988 27.6752 5.23797C27.6868 5.44484 27.6786 5.65287 27.6798 5.8609C27.6798 6.04452 27.6798 6.22931 27.6798 6.45013C28.5793 6.45013 29.4173 6.45013 30.3296 6.45013C30.3296 6.03871 30.3179 5.64706 30.3319 5.25656C30.3505 4.71266 30.6678 4.35703 31.1292 4.33263C31.6045 4.30822 32.0078 4.67896 32.0159 5.23332C32.0357 6.6477 32.0368 8.06324 32.0136 9.47878C32.0043 10.0262 31.6463 10.3481 31.1629 10.3446C30.6724 10.3411 30.3575 10.0204 30.3331 9.46716C30.3156 9.07434 30.3296 8.68036 30.3296 8.21549Z" fill="#28A3A1"/>
</svg>
