<svg width="58" height="52" viewBox="0 0 58 52" fill="none" xmlns="http://www.w3.org/2000/svg" stroke-width="0">
<path d="M57.458 51.1058C48.1592 51.1058 38.903 51.1058 29.6148 51.1058C29.6148 50.7472 29.6148 50.4135 29.6148 50.0134C30.2279 50.0134 30.8409 50.0134 31.4623 50.0134C31.4919 49.8809 31.5203 49.811 31.5203 49.74C31.5215 47.018 31.5357 44.2947 31.5132 41.5727C31.5037 40.3655 30.564 39.3429 29.4077 39.1844C28.1639 39.0139 27.0348 39.6885 26.6348 40.8484C26.5744 41.0247 26.5164 41.2153 26.5164 41.3987C26.5093 44.232 26.5117 47.0665 26.5117 49.9696C27.1389 49.9696 27.7508 49.9696 28.4053 49.9696C28.4053 50.3815 28.4053 50.7247 28.4053 51.1011C19.1361 51.1011 9.8799 51.1011 0.583468 51.1011C0.583468 50.7543 0.583468 50.4075 0.583468 50.0146C1.42376 50.0146 2.24984 50.0146 3.12564 50.0146C3.12564 39.5832 3.12564 29.1979 3.12564 18.7452C2.14924 18.7452 1.15983 18.7452 0 18.7452C3.73869 13.4479 7.38743 8.27595 11.1013 3.01291C12.1877 4.54555 13.2387 6.02848 14.3796 7.63804C14.5358 7.41909 14.6364 7.22973 14.782 7.08535C17.0105 4.84852 19.2379 2.61052 21.4865 0.396178C21.6996 0.186698 22.0617 0.0198238 22.3552 0.0174568C26.7981 -0.00621327 31.2398 -0.00503002 35.6827 0.0162731C35.962 0.0174566 36.3099 0.163028 36.5099 0.360673C38.7704 2.59158 41.0108 4.84261 43.25 7.09481C43.3944 7.24039 43.4962 7.42856 43.6547 7.64988C44.7885 6.04505 45.8324 4.56803 46.9307 3.01527C50.6244 8.24873 54.2802 13.4266 58 18.6955C56.9171 18.6955 55.9289 18.6955 54.8992 18.6955C54.8992 29.1494 54.8992 39.5359 54.8992 49.9886C55.7478 49.9886 56.5881 49.9886 57.458 49.9886C57.458 50.3862 57.458 50.7176 57.458 51.1058ZM14.9926 8.45229C15.0447 8.56118 15.0625 8.6168 15.0956 8.66177C17.1241 11.533 19.1479 14.4065 21.1954 17.2635C21.3161 17.4315 21.6321 17.5381 21.8581 17.5381C26.6229 17.5534 31.3865 17.5452 36.1513 17.5594C36.5442 17.5605 36.7608 17.4185 36.975 17.112C38.8852 14.3888 40.8096 11.6773 42.7292 8.96002C42.8358 8.80971 42.9316 8.65112 43.0547 8.46058C40.6546 6.06753 38.2757 3.68987 35.8839 1.32405C35.7679 1.20925 35.5501 1.14534 35.3797 1.14534C31.1451 1.13587 26.9093 1.13468 22.6748 1.14652C22.489 1.14652 22.2522 1.22345 22.1244 1.35008C19.748 3.70171 17.3821 6.06753 14.9926 8.45229ZM17.8603 31.9105C17.8745 31.7555 17.8899 31.6644 17.8899 31.5732C17.891 27.2641 17.8946 22.9538 17.8816 18.6446C17.8804 18.421 17.7762 18.1665 17.6449 17.9807C15.5666 15.0539 13.4766 12.1365 11.3877 9.21684C11.306 9.10204 11.209 8.99789 11.1036 8.86889C11.0196 8.96475 10.9652 9.01683 10.9237 9.076C8.78279 12.0738 6.63828 15.0693 4.51389 18.0789C4.36713 18.2872 4.31861 18.6032 4.31742 18.8695C4.30677 24.2189 4.30914 29.5672 4.30914 34.9166C4.30914 35.119 4.30914 35.3214 4.30914 35.5865C6.2205 35.5865 8.0644 35.5865 9.96984 35.5865C9.96984 38.8329 9.96984 42.0153 9.96984 45.2191C10.2278 45.2546 10.4255 45.2818 10.6433 45.3114C10.6433 45.6723 10.6433 46.0037 10.6433 46.4156C8.52833 46.4156 6.443 46.4156 4.34228 46.4156C4.34228 47.6393 4.34228 48.7826 4.34228 49.9613C8.165 49.9613 11.9546 49.9613 15.7797 49.9613C15.7797 48.779 15.7797 47.6192 15.7797 46.3931C14.3524 46.3931 12.9617 46.3931 11.5593 46.3931C11.5593 45.9919 11.5593 45.6581 11.5593 45.309C11.7842 45.2794 11.983 45.2534 12.2339 45.2202C12.2339 42.0141 12.2339 38.8293 12.2339 35.5723C13.4482 35.5723 14.608 35.5723 15.7808 35.5723C15.7808 34.6941 15.7808 33.8917 15.7808 33.0301C15.337 33.0301 14.9299 33.0301 14.5275 33.0301C14.5275 32.6254 14.5275 32.281 14.5275 31.9094C15.6495 31.9105 16.7241 31.9105 17.8603 31.9105ZM46.9413 8.84285C46.8372 8.96593 46.7851 9.01919 46.7413 9.08074C44.6098 12.062 42.4748 15.0409 40.3587 18.0328C40.2107 18.2411 40.148 18.5535 40.148 18.8174C40.135 22.9751 40.1385 27.1339 40.1385 31.2927C40.1385 31.4904 40.1385 31.688 40.1385 31.9318C41.3221 31.9318 42.4121 31.9318 43.5056 31.9318C43.5056 32.3236 43.5056 32.6692 43.5056 33.0763C43.0583 33.0763 42.6535 33.0763 42.2582 33.0763C42.2582 33.9414 42.2582 34.7427 42.2582 35.6161C43.4618 35.6161 44.6205 35.6161 45.8371 35.6161C45.8371 38.8731 45.8371 42.0555 45.8371 45.2415C46.0809 45.2664 46.2632 45.2853 46.4537 45.3043C46.4537 45.6747 46.4537 46.0191 46.4537 46.412C45.0347 46.412 43.6607 46.412 42.2499 46.412C42.2499 47.6227 42.2499 48.7826 42.2499 49.9625C46.0774 49.9625 49.867 49.9625 53.6767 49.9625C53.6767 48.7684 53.6767 47.6109 53.6767 46.3955C51.5606 46.3955 49.4882 46.3955 47.4041 46.3955C47.4041 45.9919 47.4041 45.6487 47.4041 45.3102C47.6361 45.2782 47.8195 45.2534 48.0621 45.2191C48.0621 42.0165 48.0621 38.834 48.0621 35.5877C49.9676 35.5877 51.8115 35.5877 53.6873 35.5877C53.7015 35.3616 53.7204 35.1959 53.7204 35.0303C53.7216 29.6051 53.7252 24.1811 53.711 18.7559C53.7098 18.4967 53.6045 18.1985 53.4542 17.9831C52.4174 16.4954 51.3558 15.0243 50.3025 13.5485C49.1959 11.9981 48.0882 10.4489 46.9413 8.84285ZM38.9799 31.8869C38.9799 28.2464 38.9799 24.6474 38.9799 20.9832C36.2176 20.9832 33.4884 20.9832 30.7451 20.9832C30.7451 20.5844 30.7451 20.2518 30.7451 19.853C33.5015 19.853 36.2294 19.853 38.9704 19.853C38.9704 19.4364 38.9704 19.0873 38.9704 18.7204C32.312 18.7204 25.6891 18.7204 19.0568 18.7204C19.0568 19.105 19.0568 19.4542 19.0568 19.8707C21.8215 19.8707 24.5494 19.8707 27.2833 19.8707C27.2833 20.2708 27.2833 20.6022 27.2833 20.9998C24.5246 20.9998 21.7966 20.9998 19.0556 20.9998C19.0556 24.6663 19.0556 28.2642 19.0556 31.8869C25.6998 31.8869 32.3073 31.8869 38.9799 31.8869ZM25.3613 49.9649C25.3613 49.6891 25.3613 49.4832 25.3613 49.2785C25.3613 46.7825 25.3661 44.2876 25.3601 41.7916C25.3566 40.5111 25.8383 39.4649 26.8786 38.7204C28.0538 37.8801 29.3414 37.7665 30.6303 38.4032C31.9167 39.04 32.6387 40.1241 32.6564 41.5727C32.6896 44.1432 32.6695 46.715 32.6706 49.2856C32.6706 49.5057 32.6706 49.7258 32.6706 49.9613C32.9286 49.9613 33.1073 49.9613 33.3381 49.9613C33.3381 49.2181 33.3381 48.508 33.3381 47.7731C33.6589 47.7423 33.9311 47.7162 34.2104 47.6902C34.2104 43.6142 34.2104 39.5773 34.2104 35.4682C33.0411 35.4682 31.9002 35.4682 30.7463 35.4682C30.7463 35.0658 30.7463 34.7344 30.7463 34.3249C34.2021 34.3249 37.6295 34.3249 41.0534 34.3249C41.0534 33.861 41.0534 33.4751 41.0534 33.0834C33.0056 33.0834 25.0003 33.0834 16.9916 33.0834C16.9916 33.5095 16.9916 33.8965 16.9916 34.3438C20.4403 34.3438 23.8523 34.3438 27.2715 34.3438C27.2715 34.7533 27.2715 35.0989 27.2715 35.493C26.101 35.493 24.9719 35.493 23.8334 35.493C23.8334 39.5927 23.8334 43.6438 23.8334 47.6997C24.134 47.7222 24.392 47.7411 24.6986 47.7648C24.6986 48.5127 24.6986 49.224 24.6986 49.9637C24.9293 49.9649 25.1092 49.9649 25.3613 49.9649ZM8.7958 45.2439C8.7958 42.3857 8.7958 39.5796 8.7958 36.7665C7.29039 36.7665 5.82758 36.7665 4.3553 36.7665C4.3553 39.6116 4.3553 42.4153 4.3553 45.2439C5.85006 45.2439 7.29867 45.2439 8.7958 45.2439ZM53.6743 45.2463C53.6743 42.381 53.6743 39.5785 53.6743 36.7653C52.163 36.7653 50.699 36.7653 49.2373 36.7653C49.2373 39.6116 49.2373 42.4177 49.2373 45.2463C50.7297 45.2463 52.1783 45.2463 53.6743 45.2463ZM55.775 17.5108C52.8151 13.3165 49.8918 9.17423 46.9283 4.97516C43.9565 9.18133 41.0333 13.3165 38.0923 17.4777C38.8769 17.6694 39.3657 17.5144 39.8261 16.8516C42.0333 13.6727 44.3069 10.5388 46.5579 7.39069C46.6703 7.23328 46.7934 7.08298 46.9354 6.89954C47.1094 7.13387 47.236 7.29838 47.3556 7.46643C49.5924 10.6027 51.8505 13.7224 54.0447 16.8883C54.5004 17.5463 54.9809 17.7156 55.775 17.5108ZM11.1048 4.97516C8.12712 9.1908 5.19677 13.3402 2.24511 17.5191C3.04871 17.7144 3.53158 17.5333 3.98723 16.8788C6.18499 13.7142 8.44667 10.5944 10.6859 7.45815C10.8137 7.27944 10.9486 7.10665 11.1119 6.88888C11.2871 7.12914 11.4208 7.30903 11.551 7.49129C13.7902 10.6264 16.0542 13.7461 18.2485 16.912C18.71 17.5783 19.213 17.6138 19.9563 17.499C17.0022 13.32 14.0861 9.19435 11.1048 4.97516ZM44.6536 36.7262C43.9127 36.7262 43.2192 36.7108 42.5269 36.7428C42.418 36.7475 42.2286 36.9653 42.2274 37.0848C42.2097 39.6873 42.2097 42.2911 42.2262 44.8936C42.2274 45.019 42.405 45.2475 42.5091 45.2522C43.218 45.2841 43.9293 45.2688 44.6548 45.2688C44.6536 42.4011 44.6536 39.6116 44.6536 36.7262ZM13.3771 45.2688C14.1251 45.2688 14.8198 45.2841 15.5134 45.2522C15.6199 45.2475 15.8045 45.025 15.8057 44.9031C15.8223 42.3005 15.8223 39.6968 15.8081 37.0943C15.8069 36.9724 15.6589 36.7487 15.5725 36.7452C14.8459 36.7168 14.118 36.7286 13.3771 36.7286C13.3771 39.601 13.3771 42.3905 13.3771 45.2688ZM20.5835 47.6938C20.5835 47.4677 20.5835 47.2653 20.5835 47.0618C20.5835 45.2498 20.5835 43.4379 20.5835 41.6259C20.5835 39.7572 20.5859 37.8884 20.58 36.0197C20.5788 35.8007 20.69 35.4847 20.2841 35.48C19.8758 35.4753 19.4675 35.4788 19.0627 35.4788C19.0627 40.3619 19.0627 45.1646 19.0627 50.0075C19.2663 49.9838 19.4237 49.9661 19.632 49.9436C19.632 49.1956 19.632 48.4879 19.632 47.7612C19.9622 47.7375 20.2391 47.7174 20.5835 47.6938ZM38.9882 35.4764C38.6663 35.4764 38.4012 35.5096 38.1455 35.4693C37.5502 35.377 37.4319 35.6327 37.4354 36.1901C37.4603 39.814 37.4484 43.4391 37.4484 47.063C37.4484 47.2653 37.4484 47.4677 37.4484 47.6843C37.8094 47.7186 38.1017 47.747 38.439 47.7802C38.439 48.5281 38.439 49.2382 38.439 49.959C38.6473 49.959 38.8047 49.959 38.987 49.959C38.9882 45.135 38.9882 40.3466 38.9882 35.4764ZM41.0345 49.9649C41.0345 45.1303 41.0345 40.33 41.0345 35.5214C40.7185 35.5214 40.4463 35.5214 40.1705 35.5214C40.1705 40.3548 40.1705 45.1445 40.1705 49.9649C40.4711 49.9649 40.7421 49.9649 41.0345 49.9649ZM17.8543 35.5309C16.9359 35.4113 16.9348 35.4113 16.9348 36.2469C16.9348 40.5714 16.9348 44.896 16.9348 49.2205C16.9348 49.4595 16.9348 49.6986 16.9348 49.9602C17.2827 49.9602 17.5537 49.9602 17.8543 49.9602C17.8543 45.1362 17.8543 40.3477 17.8543 35.5309ZM35.4081 35.5048C35.4081 39.6045 35.4081 43.6379 35.4081 47.6926C35.7122 47.6926 35.9845 47.6926 36.2661 47.6926C36.2661 43.6119 36.2661 39.5678 36.2661 35.5048C35.9608 35.5048 35.704 35.5048 35.4081 35.5048ZM22.6203 47.6997C22.6203 43.6249 22.6203 39.5785 22.6203 35.5167C22.3114 35.5167 22.0392 35.5167 21.767 35.5167C21.767 39.6045 21.767 43.6509 21.767 47.6997C22.0747 47.6997 22.3339 47.6997 22.6203 47.6997ZM23.5446 48.8986C22.5931 48.8986 21.6948 48.8986 20.7693 48.8986C20.7693 49.2643 20.7693 49.5945 20.7693 49.9531C21.7055 49.9531 22.6156 49.9531 23.5446 49.9531C23.5446 49.5909 23.5446 49.2749 23.5446 48.8986ZM34.4885 49.9471C35.4412 49.9471 36.3513 49.9471 37.2473 49.9471C37.2473 49.5661 37.2473 49.237 37.2473 48.9021C36.3052 48.9021 35.4081 48.9021 34.4885 48.9021C34.4885 49.2584 34.4885 49.5755 34.4885 49.9471Z" fill="#28A3A1"/>
<path d="M27.0573 12.391C25.2063 12.391 23.4192 12.391 21.6451 12.391C21.6451 11.0465 21.5398 9.71983 21.6747 8.41916C21.8096 7.12795 23.1399 6.21665 24.4761 6.28411C25.8146 6.35157 26.946 7.38951 27.0407 8.77894C27.1212 9.96008 27.0573 11.1507 27.0573 12.391ZM25.9282 11.2726C25.9282 10.4489 25.9649 9.69616 25.9188 8.947C25.8655 8.08422 25.1944 7.46052 24.3755 7.42738C23.6299 7.39661 22.8582 7.92682 22.7837 8.67243C22.6984 9.52337 22.7635 10.3897 22.7635 11.2726C23.8062 11.2726 24.837 11.2726 25.9282 11.2726Z" fill="#28A3A1"/>
<path d="M31.009 12.3792C31.009 11.101 30.9084 9.83226 31.0351 8.58721C31.1783 7.18476 32.4292 6.24032 33.8115 6.28293C35.1655 6.32554 36.2945 7.33388 36.4164 8.7245C36.504 9.71864 36.4543 10.7234 36.4649 11.7235C36.4673 11.9282 36.4649 12.1318 36.4649 12.378C34.6175 12.3792 32.8198 12.3792 31.009 12.3792ZM32.1026 11.2513C33.2056 11.2513 34.2459 11.2513 35.3051 11.2513C35.3051 10.4335 35.3501 9.65946 35.2933 8.89492C35.2282 8.02741 34.5335 7.42619 33.7133 7.42619C32.8825 7.42501 32.1665 8.06884 32.112 8.947C32.0659 9.69497 32.1026 10.4489 32.1026 11.2513Z" fill="#28A3A1"/>
<path d="M6.31873 22.0413C7.57798 22.0413 8.74137 22.0413 9.96274 22.0413C9.96274 24.6119 9.96274 27.154 9.96274 29.7329C10.216 29.7542 10.4137 29.7719 10.6421 29.7921C10.6421 30.1483 10.6421 30.482 10.6421 30.8584C8.89995 30.8584 7.15547 30.8584 5.37666 30.8584C5.37666 30.5164 5.37666 30.185 5.37666 29.7944C5.67254 29.779 5.96486 29.7637 6.31755 29.7447C6.31873 27.1978 6.31873 24.6568 6.31873 22.0413ZM7.51644 23.181C7.51644 25.3871 7.51644 27.5588 7.51644 29.7376C7.96499 29.7376 8.37211 29.7376 8.79817 29.7376C8.79817 27.5363 8.79817 25.3634 8.79817 23.181C8.35318 23.181 7.94605 23.181 7.51644 23.181Z" fill="#28A3A1"/>
<path d="M12.2185 22.0531C12.37 22.0354 12.4599 22.0164 12.5499 22.0152C13.6245 22.0129 14.6991 22.0141 15.8388 22.0141C15.8388 24.5977 15.8388 27.1517 15.8388 29.7388C16.0992 29.7566 16.2969 29.7708 16.5217 29.7861C16.5217 30.1483 16.5217 30.482 16.5217 30.8584C14.8802 30.8584 13.2339 30.8584 11.5593 30.8584C11.5593 30.5105 11.5593 30.1779 11.5593 29.8086C11.7569 29.785 11.9558 29.7613 12.2197 29.7293C12.2185 27.1836 12.2185 24.6284 12.2185 22.0531ZM14.692 29.74C14.692 27.5316 14.692 25.3693 14.692 23.1881C14.2423 23.1881 13.8222 23.1881 13.389 23.1881C13.389 25.3906 13.389 27.5517 13.389 29.74C13.8269 29.74 14.2352 29.74 14.692 29.74Z" fill="#28A3A1"/>
<path d="M13.8091 19.4258C11.9936 19.4258 10.2243 19.4258 8.4159 19.4258C8.39815 19.3086 8.36501 19.1843 8.36501 19.06C8.36146 18.041 8.34962 17.0209 8.36738 16.0019C8.3946 14.4964 9.59822 13.3177 11.0871 13.3106C12.5901 13.3035 13.7878 14.4503 13.8281 15.9711C13.8553 17.028 13.8364 18.086 13.8364 19.1429C13.8364 19.2175 13.8233 19.2908 13.8091 19.4258ZM12.6848 18.2931C12.6848 17.4611 12.7108 16.6895 12.6777 15.9202C12.6446 15.1533 12.0256 14.5355 11.2776 14.4538C10.5048 14.3686 9.66805 14.8503 9.57218 15.6137C9.46212 16.493 9.54615 17.396 9.54615 18.2931C10.5947 18.2931 11.6066 18.2931 12.6848 18.2931Z" fill="#28A3A1"/>
<path d="M52.6695 29.792C52.6695 30.1708 52.6695 30.4879 52.6695 30.8525C50.9108 30.8525 49.1687 30.8525 47.3911 30.8525C47.3911 30.5175 47.3911 30.185 47.3911 29.8098C47.5804 29.7861 47.7793 29.7613 48.0373 29.7281C48.0373 27.1931 48.0373 24.6509 48.0373 22.0602C49.2705 22.0602 50.4457 22.0602 51.6813 22.0602C51.6813 24.6154 51.6813 27.1576 51.6813 29.7364C52.0292 29.7565 52.3239 29.7731 52.6695 29.792ZM49.2314 23.1775C49.2314 25.38 49.2314 27.5517 49.2314 29.7175C49.6894 29.7175 50.1084 29.7175 50.5167 29.7175C50.5167 27.5114 50.5167 25.3539 50.5167 23.1775C50.0705 23.1775 49.6646 23.1775 49.2314 23.1775Z" fill="#28A3A1"/>
<path d="M42.1659 22.0448C43.3932 22.0448 44.5566 22.0448 45.7862 22.0448C45.7862 24.5965 45.7862 27.1505 45.7862 29.7388C46.0466 29.7566 46.2443 29.7708 46.4703 29.7873C46.4703 30.1471 46.4703 30.4809 46.4703 30.8584C44.8312 30.8584 43.1849 30.8584 41.5091 30.8584C41.5091 30.514 41.5091 30.1814 41.5091 29.8086C41.7044 29.7861 41.902 29.7637 42.1659 29.7329C42.1659 27.186 42.1659 24.6308 42.1659 22.0448ZM43.353 23.1633C43.353 25.3906 43.353 27.5671 43.353 29.7364C43.8051 29.7364 44.2134 29.7364 44.6288 29.7364C44.6288 27.5304 44.6288 25.3551 44.6288 23.1633C44.1909 23.1633 43.7968 23.1633 43.353 23.1633Z" fill="#28A3A1"/>
<path d="M44.2098 19.4186C44.2098 18.157 44.1648 16.9475 44.2216 15.7439C44.2844 14.4207 45.4904 13.3425 46.8336 13.3129C48.2538 13.281 49.5261 14.2834 49.6302 15.6669C49.7226 16.9013 49.6492 18.1476 49.6492 19.4198C47.8325 19.4186 46.049 19.4186 44.2098 19.4186ZM48.5343 18.2955C48.5343 17.5795 48.5355 16.9214 48.5343 16.2646C48.5343 16.1332 48.5367 15.9995 48.5213 15.8693C48.4349 15.1119 47.8124 14.5083 47.0644 14.4503C46.3082 14.3911 45.4951 14.874 45.4087 15.6066C45.3057 16.4871 45.3838 17.3901 45.3838 18.2955C46.4324 18.2955 47.4455 18.2955 48.5343 18.2955Z" fill="#28A3A1"/>
<path d="M26.875 29.7554C27.4206 29.7554 27.8893 29.7554 28.4029 29.7554C28.4029 30.1305 28.4029 30.4761 28.4029 30.8619C27.5567 30.8619 26.6963 30.8619 25.8028 30.8619C25.7862 30.7957 25.7448 30.7105 25.7448 30.6241C25.7412 28.8287 25.7187 27.0333 25.7495 25.2391C25.7767 23.6236 26.9425 22.2851 28.4526 22.0543C30.0942 21.8034 31.6008 22.6993 32.1026 24.2473C32.2055 24.5669 32.2777 24.9113 32.2801 25.245C32.2979 27.0404 32.2884 28.8346 32.2872 30.63C32.2872 30.701 32.2671 30.772 32.2517 30.8702C31.3712 30.8702 30.5107 30.8702 29.616 30.8702C29.616 30.514 29.616 30.1672 29.616 29.7708C30.1166 29.7708 30.5995 29.7708 31.1558 29.7708C31.1558 29.295 31.1558 28.8666 31.1558 28.4393C31.1558 27.4002 31.1711 26.3611 31.151 25.322C31.1262 24.058 30.2172 23.1514 29.0112 23.1526C27.8041 23.1538 26.8951 24.0615 26.8786 25.3279C26.8608 26.7789 26.875 28.231 26.875 29.7554Z" fill="#28A3A1"/>
<path d="M24.0098 30.8844C22.773 30.8844 21.6226 30.8844 20.38 30.8844C20.38 30.6975 20.38 30.5187 20.38 30.34C20.38 28.2417 20.3776 26.1433 20.3811 24.045C20.3835 22.82 21.0995 22.02 22.1824 22.0176C23.257 22.0152 24.005 22.8342 24.0086 24.0343C24.0145 26.1516 24.0098 28.2689 24.0098 30.3862C24.0098 30.5329 24.0098 30.6809 24.0098 30.8844ZM22.87 29.7506C22.87 27.7328 22.8807 25.7717 22.8618 23.8106C22.8582 23.4023 22.5907 23.1396 22.1564 23.1621C21.7244 23.1834 21.5185 23.4532 21.5185 23.8745C21.5185 25.7835 21.522 27.6913 21.528 29.6003C21.528 29.6489 21.5717 29.6962 21.5978 29.7506C22.0002 29.7506 22.3943 29.7506 22.87 29.7506Z" fill="#28A3A1"/>
<path d="M34.0246 30.8584C34.0246 28.463 34.0044 26.1208 34.034 23.7787C34.0471 22.7514 34.8838 22.0011 35.8779 22.0176C36.8756 22.033 37.6402 22.8035 37.6461 23.8461C37.6591 26.1694 37.6496 28.4938 37.6496 30.8584C36.4448 30.8584 35.2672 30.8584 34.0246 30.8584ZM36.5123 29.7495C36.5123 27.734 36.5182 25.7717 36.5076 23.8106C36.5052 23.413 36.2661 23.1786 35.8661 23.1621C35.4602 23.1455 35.2436 23.3858 35.1678 23.7645C35.1501 23.8556 35.156 23.9527 35.156 24.0473C35.156 25.8238 35.1548 27.6002 35.1584 29.3767C35.1584 29.4997 35.1939 29.6228 35.2128 29.7506C35.6448 29.7495 36.0389 29.7495 36.5123 29.7495Z" fill="#28A3A1"/>
<path d="M29.5533 20.9608C29.1687 20.9608 28.8373 20.9608 28.4775 20.9608C28.4775 20.5986 28.4775 20.2684 28.4775 19.8968C28.8337 19.8968 29.1793 19.8968 29.5533 19.8968C29.5533 20.2483 29.5533 20.5809 29.5533 20.9608Z" fill="#28A3A1"/>
<path d="M29.558 34.377C29.558 34.7415 29.558 35.0729 29.558 35.4398C29.2042 35.4398 28.8716 35.4398 28.4941 35.4398C28.4941 35.1036 28.4941 34.7592 28.4941 34.377C28.8408 34.377 29.1876 34.377 29.558 34.377Z" fill="#28A3A1"/>
</svg>
