

      <svg
            width="58"
            height="58"
            viewBox="0 0 58 58"
            fill="none"
            stroke-width="0"
        
            xmlns="http://www.w3.org/2000/svg"
          >
            <path
              d="M0 57.3695C0 47.8839 0 38.3972 0 28.9116C0.245898 28.3822 0.662126 28.1998 1.23669 28.2322C1.87722 28.2682 2.52016 28.2406 3.16189 28.2406C3.44497 28.2406 3.72806 28.2406 3.90918 28.2406C3.47976 27.3679 2.99276 26.5744 2.68689 25.7174C2.12672 24.1484 2.11113 22.4931 2.14471 20.8461C2.15551 20.3348 2.48777 20.0611 3.05154 20.0515C3.90079 20.0383 4.75123 20.0479 5.60048 20.0467C6.34897 20.0467 7.09746 20.0467 7.87234 20.0467C7.87234 19.4897 7.87234 19.0083 7.87234 18.5546C7.20542 18.4898 6.55889 18.4946 5.94474 18.3553C3.85161 17.8799 2.25267 16.0445 2.24067 14.1743C2.23468 13.208 2.48417 12.8707 3.41979 12.579C4.80161 12.1492 6.10188 12.3425 7.33257 13.0844C7.4981 13.184 7.66123 13.2872 7.85675 13.4073C7.9755 12.537 7.88434 11.908 7.251 11.2549C5.41576 9.36071 5.68565 6.11964 7.70561 4.41387C8.39533 3.83167 8.89432 3.81007 9.64401 4.33104C11.9027 5.90116 12.2025 9.50476 10.1478 11.4446C9.50007 12.0568 9.60562 12.6558 9.64161 13.4169C9.86232 13.2776 10.0135 13.1732 10.173 13.0832C11.4649 12.3473 12.8155 12.082 14.2429 12.6342C15.1233 12.9739 15.3285 13.3496 15.2325 14.2968C14.989 16.7024 12.8323 18.5654 10.3577 18.509C10.1202 18.5042 9.88271 18.5078 9.64161 18.5078C9.64161 19.0275 9.64161 19.5089 9.64161 20.0479C9.88151 20.0479 10.0842 20.0479 10.2881 20.0479C11.5344 20.0479 12.7807 20.0419 14.027 20.0503C14.7287 20.0551 15.0322 20.3516 15.0274 21.0562C15.0226 21.7548 15.001 22.4559 14.9386 23.1509C14.8055 24.649 14.5056 26.1027 13.6551 27.3859C13.474 27.6584 13.2701 27.9153 13.059 28.2046C19.4775 28.2046 25.8313 28.2046 32.1935 28.2046C32.1935 27.1806 32.1935 26.1915 32.1935 25.1736C31.9404 25.1736 31.7341 25.1736 31.5266 25.1736C28.0708 25.1736 24.6162 25.1736 21.1604 25.1736C19.4559 25.1736 18.5827 24.3009 18.5827 22.5963C18.5815 18.4393 18.5827 14.2824 18.5827 10.1254C18.5827 9.97412 18.5743 9.82167 18.5899 9.67162C18.6403 9.17825 18.9773 8.89016 19.4691 8.90816C20.0053 8.92857 20.28 9.25748 20.2812 9.9141C20.2848 12.6354 20.2824 15.3555 20.2824 18.0768C20.2824 18.2773 20.2824 18.4777 20.2824 18.6818C28.0312 18.6818 35.7056 18.6818 43.3069 18.6818C43.6475 17.3938 43.8982 16.1298 44.3181 14.9246C45.1517 12.5274 46.5371 10.5275 48.7442 9.15785C49.7854 8.51083 50.5075 8.92017 50.4799 10.1326C50.4199 12.7578 50.4619 15.3855 50.4619 18.012C50.4619 18.2329 50.4619 18.4537 50.4619 18.6806C51.3603 18.6806 52.182 18.6806 53.0217 18.6806C53.0325 18.5558 53.048 18.4645 53.048 18.3733C53.0492 13.0639 53.0516 7.75458 53.0468 2.44401C53.0468 1.82461 52.8945 1.70097 52.1916 1.70097C41.8447 1.69977 31.4978 1.69977 21.1508 1.70097C20.4275 1.70097 20.2872 1.84141 20.2848 2.55445C20.2812 3.46195 20.2884 4.36825 20.28 5.27575C20.2752 5.76552 20.0065 6.06082 19.5279 6.11003C19.0565 6.15805 18.6379 5.94078 18.6211 5.46302C18.5779 4.23861 18.5563 3.0046 18.6607 1.78619C18.741 0.854685 19.4847 0.363721 20.2848 0C31.1991 0 42.1134 0 53.0265 0C54.0304 0.428543 54.7453 1.07916 54.7453 2.26635C54.7465 9.14344 54.7513 16.0217 54.7417 22.8988C54.7393 24.2409 53.7845 25.158 52.4411 25.1724C51.8042 25.1784 51.1672 25.1736 50.5003 25.1736C50.5003 26.2191 50.5003 27.2095 50.5003 28.2394C52.5766 28.2394 54.6134 28.2394 56.6514 28.2394C57.7777 28.2394 57.9924 28.4579 57.9924 29.6079C57.9924 32.915 57.9924 36.2209 57.9924 39.528C57.9924 40.7752 58.0188 42.0236 57.9732 43.2684C57.9612 43.5829 57.7993 44.003 57.5618 44.1759C57.0016 44.5828 56.2663 44.1075 56.2795 43.3452C56.3215 40.9468 56.2951 38.546 56.2951 36.1464C56.2951 35.9472 56.2951 35.7467 56.2951 35.5486C54.3183 35.5486 52.4255 35.5486 50.5027 35.5486C50.5027 35.8211 50.5099 36.0468 50.5015 36.2713C50.4391 38.0058 50.4847 39.7524 50.2844 41.4714C49.9785 44.1003 48.4887 45.5804 45.8558 45.8072C43.8311 45.9813 41.7835 45.8913 39.7455 45.9177C39.5056 45.9213 39.2658 45.9177 39.0103 45.9177C39.0103 49.4 39.0103 52.8236 39.0103 56.2987C39.2717 56.2987 39.4949 56.2987 39.7192 56.2987C42.929 56.2987 46.1389 56.2987 49.3488 56.2999C49.5563 56.2999 49.7662 56.2951 49.9701 56.3227C50.4151 56.3828 50.6263 56.6781 50.6418 57.1018C50.6574 57.5484 50.4643 57.8761 49.9941 57.9589C49.7734 57.9973 49.5431 57.9985 49.3176 57.9985C45.2981 58.0009 41.2785 57.9997 37.259 57.9997C33.8224 57.9997 30.387 57.9997 26.9504 57.9985C26.7249 57.9985 26.4958 57.9961 26.2727 57.9649C25.8313 57.9025 25.6202 57.618 25.5986 57.187C25.5686 56.5964 25.9045 56.3011 26.635 56.3011C29.9576 56.2963 33.2814 56.2999 36.6041 56.2975C36.82 56.2975 37.0359 56.2759 37.2362 56.2639C37.2362 53.8595 37.2362 51.5271 37.2362 49.1408C36.9939 49.1408 36.7888 49.1408 36.5849 49.1408C35.7356 49.1408 34.8852 49.1504 34.0359 49.136C33.4422 49.1251 33.1087 48.8058 33.1087 48.2969C33.1087 47.7903 33.441 47.471 34.0347 47.4482C34.5625 47.4278 35.0915 47.441 35.6205 47.441C36.159 47.441 36.6964 47.441 37.241 47.441C37.241 46.8864 37.241 46.4242 37.241 45.9177C37.0035 45.9177 36.7996 45.9177 36.5957 45.9177C33.3102 45.9177 30.0248 45.9177 26.7405 45.9177C25.6634 45.9177 25.4019 45.65 25.4595 44.5612C25.6022 41.9023 26.8965 40.0069 29.2871 38.8641C30.9604 38.0647 32.756 37.875 34.5817 37.8738C39.0942 37.8714 43.6068 37.8726 48.1193 37.8726C48.3388 37.8726 48.5583 37.8726 48.7706 37.8726C48.7706 37.0539 48.7706 36.3073 48.7706 35.5318C38.762 35.5318 28.8037 35.5318 18.7722 35.5318C18.7722 35.8007 18.7722 36.0408 18.7722 36.2797C18.7722 43.0439 18.7722 49.8082 18.7722 56.5724C18.7722 56.7609 18.7806 56.9517 18.7626 57.139C18.7087 57.6864 18.3896 57.9709 17.8726 57.9493C17.3772 57.9289 17.0965 57.654 17.0845 57.1054C17.0653 56.2363 17.0773 55.3672 17.0761 54.4981C17.0761 54.0696 17.0761 53.6423 17.0761 53.2113C11.9231 53.2113 6.85276 53.2113 1.72369 53.2113C1.72369 53.4454 1.72369 53.6483 1.72369 53.8523C1.72249 54.9291 1.73328 56.0058 1.71769 57.0838C1.70929 57.7008 1.29666 58.0765 0.731697 57.9217C0.453412 57.8461 0.239901 57.5592 0 57.3695ZM47.378 33.7792C46.6091 32.6689 45.8018 31.5609 45.0678 30.4085C44.8446 30.0568 44.6515 29.926 44.2413 29.9272C30.2875 29.938 16.3336 29.9368 2.37982 29.9368C2.1783 29.9368 1.97678 29.9368 1.75727 29.9368C1.75727 31.256 1.75727 32.5092 1.75727 33.7804C17.0294 33.7792 32.2606 33.7792 47.378 33.7792ZM1.76087 44.356C1.76087 46.7544 1.76087 49.1011 1.76087 51.4455C6.87316 51.4455 11.9411 51.4455 17.0234 51.4455C17.0234 49.0663 17.0234 46.7195 17.0234 44.356C11.9243 44.356 6.86956 44.356 1.76087 44.356ZM1.74888 42.5998C6.85876 42.5998 11.9387 42.5998 17.0162 42.5998C17.0162 40.217 17.0162 37.8738 17.0162 35.5414C11.8967 35.5414 6.83117 35.5414 1.74888 35.5414C1.74888 37.9146 1.74888 40.2458 1.74888 42.5998ZM27.1724 44.2167C27.3979 44.2167 27.5838 44.2167 27.7697 44.2167C33.3726 44.2167 38.9755 44.2167 44.5784 44.2155C44.8794 44.2155 45.1841 44.2155 45.4828 44.1807C46.4772 44.0619 47.4368 43.8338 48.0209 42.9143C48.6591 41.9083 48.737 40.7692 48.7706 39.6336C48.6795 39.6036 48.6447 39.582 48.6099 39.582C43.5732 39.5868 38.5365 39.5676 33.4997 39.6132C32.0591 39.6264 30.6497 39.9421 29.3974 40.7224C28.1224 41.517 27.3823 42.6622 27.1724 44.2167ZM43.2325 20.4596C35.5689 20.4596 27.9388 20.4596 20.28 20.4596C20.28 21.181 20.2788 21.8605 20.28 22.5387C20.2812 23.3706 20.388 23.4774 21.2312 23.4774C28.3659 23.4774 35.5017 23.4774 42.6364 23.4774C42.8355 23.4774 43.0358 23.4774 43.2313 23.4774C43.2325 22.4259 43.2325 21.4523 43.2325 20.4596ZM48.6027 32.4C48.6423 32.3772 48.6807 32.3544 48.7202 32.3304C48.7202 25.3464 48.7202 18.3625 48.7202 11.2645C48.4563 11.5094 48.2596 11.6739 48.0833 11.8587C47.0649 12.9295 46.3596 14.1911 45.881 15.58C44.8171 18.6662 44.7175 21.8329 45.1553 25.0319C45.448 27.1686 46.0993 29.1901 47.3804 30.9583C47.7498 31.4673 48.1937 31.921 48.6027 32.4ZM13.2929 21.7884C10.119 21.7884 7.0003 21.7884 3.70767 21.7884C3.93917 23.0345 4.07831 24.2349 4.39618 25.3848C4.85199 27.0318 6.0347 27.9165 7.7248 28.0857C8.26578 28.1398 8.82115 28.1422 9.36333 28.0881C10.6084 27.9657 11.6568 27.4615 12.3057 26.3356C13.113 24.9335 13.2509 23.3862 13.2929 21.7884ZM56.2459 33.7816C56.2459 32.5008 56.2459 31.2344 56.2459 29.9716C54.3051 29.9716 52.4099 29.9716 50.5039 29.9716C50.5039 31.2596 50.5039 32.5116 50.5039 33.7816C52.4339 33.7816 54.3183 33.7816 56.2459 33.7816ZM33.9687 28.2094C35.7908 28.2094 37.5685 28.2094 39.3749 28.2094C39.3749 27.1938 39.3749 26.2083 39.3749 25.2036C37.5601 25.2036 35.7812 25.2036 33.9687 25.2036C33.9687 26.2059 33.9687 27.1782 33.9687 28.2094ZM44.065 28.2094C43.867 27.2455 43.6799 26.3092 43.476 25.3776C43.4592 25.2984 43.3309 25.1868 43.2529 25.1856C42.5476 25.1712 41.8411 25.1772 41.1562 25.1772C41.1562 26.2455 41.1562 27.2311 41.1562 28.2094C42.1554 28.2094 43.1078 28.2094 44.065 28.2094ZM50.4955 23.4726C51.1816 23.4726 51.8401 23.5134 52.4879 23.4486C52.6858 23.4294 53.0001 23.1317 53.0133 22.9444C53.0708 22.1258 53.0385 21.3011 53.0385 20.4476C52.1676 20.4476 51.3508 20.4476 50.4955 20.4476C50.4955 21.4535 50.4955 22.4403 50.4955 23.4726ZM8.77917 10.4111C10.1862 9.19266 10.1766 6.9035 8.78397 5.83754C7.38055 6.94191 7.36495 9.16625 8.77917 10.4111ZM9.6704 16.6339C11.3929 17.3638 13.5988 15.6112 13.4872 14.2355C12.2014 13.5441 9.76516 14.7961 9.6704 16.6339ZM7.83036 16.6387C7.59166 14.8489 5.57769 13.6017 3.99315 14.2343C4.17187 15.9593 6.21823 17.2617 7.83036 16.6387Z"
            />
            <path
              d="M56.2903 52.6892C56.2903 51.2727 56.2867 49.8562 56.2915 48.4397C56.2939 47.7867 56.6286 47.3894 57.1456 47.4014C57.6458 47.4134 57.9816 47.7963 57.984 48.4145C57.9912 51.2667 57.9912 54.1176 57.984 56.9698C57.9828 57.6192 57.6854 57.9433 57.142 57.9505C56.571 57.9577 56.2939 57.636 56.2915 56.9386C56.2867 55.5221 56.2903 54.1056 56.2903 52.6892Z"
            />
            <path
              d="M9.34533 48.7566C8.34615 48.7566 7.34576 48.7614 6.34658 48.7542C5.71444 48.7506 5.37618 48.4457 5.38098 47.9044C5.38577 47.3678 5.72403 47.0605 6.35977 47.0581C8.39653 47.0509 10.4333 47.0521 12.47 47.0581C13.1034 47.0593 13.456 47.3654 13.4692 47.8888C13.4836 48.4337 13.1178 48.7518 12.4556 48.7554C11.4205 48.759 10.3829 48.7566 9.34533 48.7566Z"
            />
            <path
              d="M9.41371 39.9169C8.37614 39.9169 7.33977 39.9229 6.30219 39.9145C5.71084 39.9097 5.38457 39.6024 5.38217 39.0802C5.37978 38.5568 5.70604 38.2291 6.2938 38.2267C8.36774 38.2171 10.4417 38.2183 12.5168 38.2255C13.131 38.2279 13.4848 38.5688 13.4704 39.0994C13.4572 39.606 13.1154 39.9109 12.5252 39.9157C11.4877 39.9217 10.4501 39.9169 9.41371 39.9169Z"
            />
          </svg>