<svg width="61" height="61" viewBox="0 0 61 61" fill="none" xmlns="http://www.w3.org/2000/svg">
<path d="M3.89186 32.424C1.96986 32.2851 1.96986 32.2851 1.96986 30.3433C1.96986 29.8101 1.96738 29.2781 1.96986 28.7449C1.97482 27.8149 2.30342 27.4801 3.2173 27.4752C4.09274 27.4702 4.96694 27.4739 5.87214 27.4739C5.87214 25.8247 5.87214 24.2351 5.87214 22.5573C5.00166 22.5573 4.12994 22.5598 3.25822 22.5561C2.29722 22.5524 1.97358 22.2287 1.96986 21.264C1.96738 20.4853 1.96738 19.7066 1.96986 18.9291C1.97358 17.9656 2.29474 17.642 3.26194 17.642C9.1817 17.6407 15.1002 17.6407 21.02 17.6407C23.6004 17.6407 26.1809 17.6407 28.7625 17.6407C28.9845 17.6407 29.2052 17.6407 29.4644 17.6407C29.4644 15.746 29.4644 13.8959 29.4644 11.9851C28.9882 12.1885 28.5443 12.3869 28.0954 12.5704C27.2088 12.9325 26.5665 12.5282 26.5553 11.5846C26.5417 10.3756 26.5603 9.16782 26.5479 7.95882C26.5429 7.4219 26.7686 7.06478 27.2547 6.8515C32.4267 4.59222 37.5938 2.32426 42.7758 0.0873015C43.0721 -0.0404185 43.5235 -0.0230585 43.8236 0.107142C48.9646 2.3317 54.0933 4.58726 59.2281 6.82918C59.7663 7.06354 59.9969 7.44422 59.987 8.02826C59.9672 9.1951 59.9882 10.3632 59.9783 11.5313C59.9696 12.527 59.3434 12.9436 58.4296 12.5667C57.9819 12.3819 57.5405 12.181 57.0519 11.9665C57.0519 17.1584 57.0519 22.2734 57.0519 27.4764C57.3594 27.4764 57.6583 27.4653 57.9546 27.4789C58.5821 27.5062 58.9727 27.8546 58.9875 28.4622C59.0123 29.4443 59.0111 30.4289 58.9875 31.4122C58.9727 31.995 58.5932 32.3509 58.0092 32.3868C57.7079 32.4054 57.4028 32.3905 57.0655 32.3905C57.0655 40.2571 57.0655 48.0753 57.0655 55.9939C57.2825 55.9939 57.5169 55.9939 57.7513 55.9939C61.3051 55.9952 60.9604 55.6591 60.9629 59.2353C60.9629 59.3171 60.9629 59.399 60.9629 59.4808C60.9616 60.6191 60.6789 60.9081 59.5642 60.9105C58.9702 60.9118 58.3762 60.9105 57.7823 60.9105C39.0421 60.9105 20.3008 60.9105 1.56066 60.9105C0.230136 60.9105 0.00445603 60.6811 0.00321603 59.332C0.00321603 58.5942 -0.00546397 57.8564 0.00569603 57.1199C0.016856 56.3597 0.378936 56.0039 1.15022 55.9964C2.04922 55.9865 2.94822 55.9939 3.89186 55.9939C3.89186 48.1311 3.89186 40.2993 3.89186 32.424ZM55.022 55.9803C55.022 48.0914 55.022 40.2596 55.022 32.4426C47.1493 32.4426 39.3187 32.4426 31.5005 32.4426C31.5005 40.3104 31.5005 48.1286 31.5005 55.9518C31.8291 55.9518 32.1217 55.9518 32.4491 55.9518C32.4491 55.6877 32.4491 55.4645 32.4491 55.2425C32.4491 51.3712 32.4491 47.4987 32.4491 43.6274C32.4491 42.5077 32.7355 42.2275 33.8751 42.2275C36.5584 42.2275 39.2418 42.2262 41.9251 42.2275C42.9605 42.2275 43.2643 42.5375 43.2643 43.5915C43.2656 47.5037 43.2643 51.4171 43.2643 55.3293C43.2643 55.5438 43.2643 55.7584 43.2643 55.9803C47.2323 55.9803 51.1024 55.9803 55.022 55.9803ZM55.0146 27.4529C55.0394 27.3537 55.058 27.3152 55.058 27.2768C55.0617 22.013 55.058 16.7504 55.0741 11.4879C55.0753 11.1109 54.8794 11.0055 54.6029 10.8852C50.9871 9.30794 47.3762 7.71578 43.7517 6.1571C43.4789 6.0393 43.0659 6.04426 42.7907 6.16206C39.186 7.7133 35.5962 9.30298 31.994 10.8592C31.5935 11.0315 31.4558 11.2287 31.4571 11.6652C31.4732 16.7442 31.467 21.8233 31.4682 26.9023C31.4682 27.0796 31.4881 27.2569 31.5005 27.4541C39.3559 27.4529 47.1703 27.4529 55.0146 27.4529ZM9.87982 42.2523C9.87982 46.8564 9.87982 51.4097 9.87982 55.9431C15.1312 55.9431 20.3392 55.9431 25.5336 55.9431C25.5336 51.3551 25.5336 46.8167 25.5336 42.2523C20.3082 42.2523 15.1151 42.2523 9.87982 42.2523ZM29.4569 55.9629C29.4569 48.0877 29.4569 40.2559 29.4569 32.4215C21.5966 32.4215 13.7809 32.4215 5.9391 32.4215C5.9391 40.2819 5.9391 48.1137 5.9391 55.9493C6.5963 55.9493 7.21754 55.9493 7.85242 55.9493C7.85242 51.3613 7.85242 46.8179 7.85242 42.2795C7.02162 41.9534 6.88894 41.7662 6.88646 40.9155C6.88398 40.0959 6.87902 39.2763 6.88894 38.4579C6.89762 37.6866 7.25226 37.3133 8.01114 37.3121C14.4629 37.3071 20.9146 37.3071 27.3663 37.3121C28.1599 37.3121 28.5083 37.6804 28.5158 38.4938C28.5232 39.2725 28.491 40.0513 28.5257 40.8287C28.5579 41.5752 28.3422 42.1171 27.5635 42.2585C27.5635 46.8502 27.5635 51.3911 27.5635 55.9629C28.1983 55.9629 28.8047 55.9629 29.4569 55.9629ZM41.2555 55.9667C41.2555 52.0197 41.2555 48.1237 41.2555 44.2425C38.9529 44.2425 36.6948 44.2425 34.4492 44.2425C34.4492 48.1745 34.4492 52.0569 34.4492 55.9667C36.7258 55.9667 38.969 55.9667 41.2555 55.9667ZM58.9714 58.0027C39.9461 58.0027 20.9729 58.0027 1.99838 58.0027C1.99838 58.3239 1.99838 58.6041 1.99838 58.9117C20.9989 58.9117 39.9721 58.9117 58.9714 58.9117C58.9714 58.6004 58.9714 58.3214 58.9714 58.0027ZM28.5183 10.2193C28.7886 10.109 28.9944 10.0309 29.1953 9.94282C33.5961 8.0171 37.9993 6.09882 42.3914 4.15202C43.0039 3.88046 43.526 3.87178 44.1398 4.14582C47.4617 5.62886 50.7986 7.07966 54.1317 8.53914C55.4002 9.09466 56.67 9.64398 58.0154 10.2293C58.0154 9.71714 58.0563 9.28686 57.998 8.86898C57.9695 8.66066 57.8046 8.37794 57.626 8.29858C52.9698 6.23894 48.3074 4.1979 43.6388 2.16926C43.4429 2.0837 43.149 2.07006 42.9581 2.15314C38.251 4.19294 33.5502 6.24886 28.8543 8.31594C28.708 8.38042 28.5468 8.58626 28.5331 8.74002C28.491 9.20378 28.5183 9.67374 28.5183 10.2193ZM3.9675 30.3917C21.6598 30.3917 39.3224 30.3917 56.9899 30.3917C56.9899 30.0631 56.9899 29.7704 56.9899 29.4865C39.2852 29.4865 21.6239 29.4865 3.9675 29.4865C3.9675 29.8101 3.9675 30.0903 3.9675 30.3917ZM3.96378 20.551C12.4987 20.551 20.9853 20.551 29.4743 20.551C29.4743 20.2299 29.4743 19.9509 29.4743 19.6396C20.9617 19.6396 12.4764 19.6396 3.96378 19.6396C3.96378 19.9496 3.96378 20.2299 3.96378 20.551ZM11.7745 22.602C10.4527 22.602 9.17798 22.602 7.91814 22.602C7.91814 24.2475 7.91814 25.8508 7.91814 27.4442C9.22634 27.4442 10.4874 27.4442 11.7745 27.4442C11.7745 25.8247 11.7745 24.2363 11.7745 22.602ZM13.8119 22.5859C13.8119 24.2375 13.8119 25.8409 13.8119 27.4268C15.1312 27.4268 16.4059 27.4268 17.6683 27.4268C17.6683 25.7888 17.6683 24.2016 17.6683 22.5859C16.3762 22.5859 15.1163 22.5859 13.8119 22.5859ZM23.5744 22.602C22.2501 22.602 20.9753 22.602 19.718 22.602C19.718 24.2487 19.718 25.852 19.718 27.4417C21.0274 27.4417 22.2885 27.4417 23.5744 27.4417C23.5744 25.8223 23.5744 24.2338 23.5744 22.602ZM25.5931 27.4305C26.9236 27.4305 28.1983 27.4305 29.4718 27.4305C29.4718 25.7962 29.4718 24.209 29.4718 22.5945C28.1673 22.5945 26.8926 22.5945 25.5931 22.5945C25.5931 24.2165 25.5931 25.8037 25.5931 27.4305ZM8.87914 40.2174C14.7939 40.2174 20.6579 40.2174 26.5231 40.2174C26.5231 39.8963 26.5231 39.616 26.5231 39.3073C20.6319 39.3073 14.7691 39.3073 8.87914 39.3073C8.87914 39.6185 8.87914 39.8987 8.87914 40.2174Z" fill="#28A3A1"/>
<path d="M49.1642 42.2262C50.4142 42.2262 51.6628 42.22 52.9128 42.2287C53.7163 42.2337 54.0771 42.5908 54.0796 43.3931C54.087 45.5643 54.087 47.7356 54.0796 49.9068C54.0771 50.7091 53.7163 51.0712 52.914 51.0736C50.4154 51.0798 47.9168 51.0798 45.4182 51.0736C44.6147 51.0712 44.2551 50.7103 44.2526 49.908C44.2464 47.7368 44.2464 45.5655 44.2526 43.3943C44.2551 42.5896 44.6134 42.2337 45.417 42.2287C46.6656 42.22 47.9143 42.2262 49.1642 42.2262ZM52.0869 44.2363C50.1079 44.2363 48.1772 44.2363 46.2639 44.2363C46.2639 45.883 46.2639 47.4863 46.2639 49.0772C48.2293 49.0772 50.1438 49.0772 52.0869 49.0772C52.0869 47.4566 52.0869 45.8681 52.0869 44.2363Z" fill="#28A3A1"/>
<path d="M37.3657 21.5753C36.1368 21.5753 34.908 21.579 33.6791 21.574C32.7975 21.5703 32.4528 21.2281 32.4515 20.3452C32.4466 18.2149 32.4466 16.0845 32.4515 13.9542C32.4528 13.0701 32.795 12.7279 33.6779 12.7266C36.1356 12.7229 38.5933 12.7229 41.0509 12.7266C41.9338 12.7279 42.2785 13.0726 42.2798 13.9542C42.2847 16.0845 42.2847 18.2149 42.2798 20.3452C42.2773 21.2268 41.9326 21.5703 41.0522 21.574C39.8246 21.579 38.5957 21.5753 37.3657 21.5753ZM34.4603 14.7193C34.4603 16.371 34.4603 17.9743 34.4603 19.5603C36.4344 19.5603 38.3651 19.5603 40.2834 19.5603C40.2834 17.9222 40.2834 16.3338 40.2834 14.7193C38.3353 14.7193 36.4195 14.7193 34.4603 14.7193Z" fill="#28A3A1"/>
<path d="M49.1593 12.7254C50.4092 12.7254 51.6579 12.7192 52.9078 12.7279C53.7138 12.7328 54.0759 13.0875 54.0784 13.8885C54.0858 16.0597 54.0858 18.231 54.0784 20.4022C54.0759 21.207 53.7163 21.5715 52.9177 21.5728C50.4191 21.579 47.9205 21.579 45.4219 21.5728C44.6159 21.5703 44.2551 21.2119 44.2526 20.4109C44.2452 18.2397 44.2464 16.0684 44.2526 13.8972C44.2551 13.0899 44.611 12.7328 45.412 12.7266C46.6607 12.7192 47.9106 12.7254 49.1593 12.7254ZM52.0919 14.7416C50.0955 14.7416 48.1648 14.7416 46.2478 14.7416C46.2478 16.3797 46.2478 17.9681 46.2478 19.5702C48.2107 19.5702 50.1414 19.5702 52.0919 19.5702C52.0919 17.9433 52.0919 16.3549 52.0919 14.7416Z" fill="#28A3A1"/>
<path d="M38.3564 50.0692C38.3564 49.7208 38.3304 49.3711 38.3626 49.0251C38.4122 48.4895 38.8462 48.1038 39.3546 48.1348C39.8977 48.1671 40.2573 48.4771 40.2945 49.0103C40.3441 49.7233 40.3354 50.4437 40.2982 51.1592C40.271 51.6949 39.8159 52.0669 39.3087 52.0545C38.7991 52.042 38.3986 51.6601 38.3589 51.1133C38.3341 50.7673 38.3539 50.4177 38.3539 50.0692H38.3564Z" fill="#28A3A1"/>
</svg>
