<svg width="21" height="30" viewBox="0 0 21 30" fill="none" xmlns="http://www.w3.org/2000/svg">
<path d="M3 3V27H18V3H3ZM1.5 0H19.5C19.8978 0 20.2794 0.158035 20.5607 0.43934C20.842 0.720644 21 1.10218 21 1.5V28.5C21 28.8978 20.842 29.2794 20.5607 29.5607C20.2794 29.842 19.8978 30 19.5 30H1.5C1.10218 30 0.720645 29.842 0.43934 29.5607C0.158036 29.2794 0 28.8978 0 28.5V1.5C0 1.10218 0.158036 0.720644 0.43934 0.43934C0.720645 0.158035 1.10218 0 1.5 0ZM10.5 22.5C10.8978 22.5 11.2794 22.658 11.5607 22.9393C11.842 23.2206 12 23.6022 12 24C12 24.3978 11.842 24.7794 11.5607 25.0607C11.2794 25.342 10.8978 25.5 10.5 25.5C10.1022 25.5 9.72064 25.342 9.43934 25.0607C9.15804 24.7794 9 24.3978 9 24C9 23.6022 9.15804 23.2206 9.43934 22.9393C9.72064 22.658 10.1022 22.5 10.5 22.5Z" fill="white"/>
</svg>
