<svg width="65" height="65" viewBox="0 0 65 65" fill="none" xmlns="http://www.w3.org/2000/svg">
<path d="M38.6827 32.4904L50.0544 32.4904L48.1049 30.8659C48.1049 33.6818 47.4551 37.5806 46.1555 42.5625C44.6393 47.761 42.2567 52.7428 39.0076 57.5081L48.1049 64.656C53.52 59.2409 57.7438 53.2843 60.7762 46.7862C63.5921 40.2882 65 33.8984 65 27.6169V0L38.6827 2.30073e-06V32.4904ZM0.343997 32.4904H11.3907L9.76622 30.8659C9.76622 33.6818 9.11642 37.5806 7.8168 42.5625C6.30058 47.761 3.80965 52.7428 0.343999 57.5081L9.44132 64.656C15.073 59.2409 19.2968 53.2843 22.1126 46.7862C24.9284 40.2882 26.3363 33.8984 26.3363 27.6169L26.3363 3.38008e-06L0.343994 5.65241e-06L0.343997 32.4904Z" fill="white" fill-opacity="0.3"/>
</svg>
