<svg width="34" height="30" viewBox="0 0 34 30" fill="none" xmlns="http://www.w3.org/2000/svg">
<path d="M3.03242 26.9676V6.80195C3.03233 6.49072 3.12802 6.18699 3.30651 5.93201C3.48499 5.67703 3.73762 5.48316 4.03009 5.37672L18.6934 0.045714C18.8079 0.00402705 18.9308 -0.00942618 19.0517 0.00649487C19.1725 0.0224159 19.2877 0.0672419 19.3876 0.137172C19.4874 0.207102 19.5689 0.300075 19.6252 0.408207C19.6814 0.516339 19.7108 0.636442 19.7108 0.758334V8.26813L29.2872 11.4598C29.5892 11.5604 29.8519 11.7535 30.038 12.0117C30.2242 12.27 30.3243 12.5803 30.3242 12.8986V26.9676H33.3567V30H0V26.9676H3.03242ZM6.06485 26.9676H16.6783V4.00454L6.06485 7.86482V26.9676ZM27.2918 26.9676V13.9918L19.7108 11.4643V26.9676H27.2918Z" fill="white"/>
</svg>
