<svg width="15" height="19" viewBox="0 0 15 19" fill="none" xmlns="http://www.w3.org/2000/svg">
<path d="M12.8033 12.8033L7.5 18.1066L2.19667 12.8033C1.14779 11.7544 0.433489 10.418 0.144107 8.96314C-0.145275 7.50828 0.0032557 6.00029 0.570915 4.62985C1.13858 3.25941 2.09987 2.08808 3.33323 1.26397C4.5666 0.439865 6.01664 0 7.5 0C8.98336 0 10.4334 0.439865 11.6668 1.26397C12.9001 2.08808 13.8614 3.25941 14.4291 4.62985C14.9967 6.00029 15.1453 7.50828 14.8559 8.96314C14.5665 10.418 13.8522 11.7544 12.8033 12.8033ZM7.5 10.8333C8.38405 10.8333 9.2319 10.4821 9.85702 9.85695C10.4821 9.23183 10.8333 8.38399 10.8333 7.49993C10.8333 6.61588 10.4821 5.76803 9.85702 5.14291C9.2319 4.51779 8.38405 4.1666 7.5 4.1666C6.61595 4.1666 5.7681 4.51779 5.14298 5.14291C4.51786 5.76803 4.16667 6.61588 4.16667 7.49993C4.16667 8.38399 4.51786 9.23183 5.14298 9.85695C5.7681 10.4821 6.61595 10.8333 7.5 10.8333ZM7.5 9.1666C7.05797 9.1666 6.63405 8.991 6.32149 8.67844C6.00893 8.36588 5.83333 7.94196 5.83333 7.49993C5.83333 7.0579 6.00893 6.63398 6.32149 6.32142C6.63405 6.00886 7.05797 5.83327 7.5 5.83327C7.94203 5.83327 8.36595 6.00886 8.67851 6.32142C8.99107 6.63398 9.16667 7.0579 9.16667 7.49993C9.16667 7.94196 8.99107 8.36588 8.67851 8.67844C8.36595 8.991 7.94203 9.1666 7.5 9.1666Z" fill="#333333"/>
</svg>
