<svg width="15" height="13" viewBox="0 0 15 13" fill="none" xmlns="http://www.w3.org/2000/svg">
<path d="M0.75 0H14.25C14.4489 0 14.6397 0.0718342 14.7803 0.1997C14.921 0.327566 15 0.500989 15 0.681818V11.5909C15 11.7717 14.921 11.9452 14.7803 12.073C14.6397 12.2009 14.4489 12.2727 14.25 12.2727H0.75C0.551088 12.2727 0.360322 12.2009 0.21967 12.073C0.0790176 11.9452 0 11.7717 0 11.5909V0.681818C0 0.500989 0.0790176 0.327566 0.21967 0.1997C0.360322 0.0718342 0.551088 0 0.75 0ZM7.545 5.92023L2.736 2.20773L1.76475 3.24682L7.55475 7.71614L13.2405 3.24341L12.2595 2.21182L7.54575 5.92023H7.545Z" fill="#333333"/>
</svg>
