<svg width="111" height="47" viewBox="0 0 111 47" fill="none" xmlns="http://www.w3.org/2000/svg">
<path d="M8.97888 46.9933V31.2551L36.5526 11.1247L44.1501 16.677L51.7677 11.1113L36.5526 0L0 26.6952V46.9933H8.97888Z" fill="#28A3A1"/>
<path d="M38.752 46.9933V31.2551L66.3257 11.1247L81.5409 11.1113L66.3257 0L29.7732 26.6952V46.9933H38.752Z" fill="#28A3A1"/>
<path d="M46.4166 40.5156L42.9967 29.9341H45.9606L48.0193 37.2231L50.0913 29.9341H53.0552L49.642 40.5156H46.4166Z" fill="#28A3A1"/>
<path d="M53.88 29.9341H56.5824V40.5156H53.88V29.9341Z" fill="#28A3A1"/>
<path d="M64.5957 37.9004V40.5156H58.2454V29.9341H60.9478V37.9004H64.5957Z" fill="#28A3A1"/>
<path d="M71.925 37.9004V40.5156H65.5747V29.9341H68.2771V37.9004H71.925Z" fill="#28A3A1"/>
<path d="M79.7974 40.5156L79.2878 38.9867H75.6868L75.2309 40.5156H72.3005L75.6734 29.9341H79.0799L82.5803 40.5156H79.7974ZM76.3909 36.6599H78.5233L77.4504 33.0589L76.3909 36.6599Z" fill="#28A3A1"/>
<path d="M89.7017 37.9004V40.5156H83.3514V29.9341H86.0538V37.9004H89.7017Z" fill="#28A3A1"/>
<path d="M90.6874 29.9341H93.3898V40.5156H90.6874V29.9341Z" fill="#28A3A1"/>
<path d="M98.6671 40.7436C97.5473 40.7436 96.6219 40.5089 95.8843 40.0328C95.1467 39.5567 94.637 38.9197 94.342 38.115L96.6554 36.7672C97.0511 37.7059 97.7418 38.1753 98.7409 38.1753C99.5657 38.1753 99.9815 37.9406 99.9815 37.4712C99.9815 37.1628 99.7468 36.9147 99.2639 36.7202C99.0628 36.6397 98.6202 36.4989 97.9362 36.2978C96.9706 36.0161 96.1995 35.6205 95.6362 35.1109C95.0729 34.6012 94.7913 33.8971 94.7913 32.9852C94.7913 32.0061 95.14 31.2149 95.8441 30.6114C96.5414 30.0078 97.4199 29.7061 98.466 29.7061C99.3511 29.7061 100.136 29.914 100.826 30.323C101.51 30.7388 102.033 31.3356 102.395 32.1201L100.129 33.4479C99.7937 32.6633 99.2505 32.2677 98.4794 32.2677C98.1575 32.2677 97.9094 32.3347 97.7485 32.4621C97.5808 32.5962 97.5004 32.7639 97.5004 32.965C97.5004 33.1997 97.6211 33.3942 97.8692 33.5551C98.1173 33.7161 98.5934 33.9038 99.3109 34.1184C99.8138 34.2995 100.223 34.447 100.545 34.561C100.86 34.675 101.209 34.856 101.584 35.1042C101.96 35.3523 102.235 35.6674 102.416 36.0564C102.597 36.4453 102.691 36.9013 102.691 37.4243C102.691 38.4637 102.322 39.2751 101.584 39.8585C100.846 40.4486 99.8742 40.7436 98.6671 40.7436Z" fill="#28A3A1"/>
<path d="M110.697 29.9341V32.5493H108.082V40.5156H105.38V32.5493H102.764V29.9341H110.697Z" fill="#28A3A1"/>
<path d="M45.974 46.9262L45.6991 46.1484H44.0562L43.788 46.9262H43.0973L44.4988 43.0638H45.2632L46.658 46.9262H45.974ZM44.2708 45.5516H45.4912L44.881 43.8081L44.2708 45.5516Z" fill="#28A3A1"/>
<path d="M50.7216 44.9212C50.8893 45.0084 51.0234 45.1291 51.1173 45.2833C51.2112 45.4376 51.2581 45.6186 51.2581 45.8198C51.2581 46.135 51.1441 46.3965 50.9228 46.6111C50.7015 46.8189 50.4266 46.9262 50.098 46.9262H48.4417V43.0638H49.9773C50.2925 43.0638 50.5607 43.1644 50.782 43.3722C51.0033 43.5734 51.1106 43.8282 51.1106 44.1367C51.1106 44.4653 50.9832 44.7335 50.7216 44.9212ZM49.984 43.6606H49.0855V44.6731H49.984C50.1248 44.6731 50.2388 44.6262 50.3394 44.5256C50.4333 44.425 50.4802 44.311 50.4802 44.1635C50.4802 44.0227 50.4333 43.902 50.3394 43.8014C50.2388 43.7075 50.1248 43.6606 49.984 43.6606ZM50.1047 46.3294C50.2523 46.3294 50.3729 46.2758 50.4802 46.1752C50.5808 46.0679 50.6345 45.9405 50.6345 45.793C50.6345 45.6455 50.5808 45.5113 50.4802 45.4108C50.3797 45.3035 50.2523 45.2565 50.1047 45.2565H49.0855V46.3361H50.1047V46.3294Z" fill="#28A3A1"/>
<path d="M51.8147 43.0638H52.4517V46.9262H51.8147V43.0638Z" fill="#28A3A1"/>
<path d="M56.978 45.1895C56.978 45.7192 56.8037 46.1484 56.455 46.4904C56.1063 46.8256 55.6503 46.9933 55.087 46.9933C54.4902 46.9933 54.0007 46.7988 53.6118 46.4166C53.2229 46.0277 53.0284 45.5583 53.0284 44.995C53.0284 44.4384 53.2229 43.9623 53.6118 43.5734C54.0007 43.1845 54.4768 42.99 55.0535 42.99C55.4156 42.99 55.7442 43.0705 56.0392 43.2381C56.3343 43.4058 56.569 43.627 56.7366 43.902L56.1935 44.2171C56.0929 44.0361 55.9387 43.8886 55.7375 43.7746C55.5363 43.6606 55.3083 43.6069 55.0602 43.6069C54.6579 43.6069 54.3226 43.741 54.0611 44.0026C53.7995 44.2641 53.6721 44.5994 53.6721 44.995C53.6721 45.3906 53.8063 45.7192 54.0678 45.9807C54.3293 46.2423 54.678 46.3697 55.1004 46.3697C55.4424 46.3697 55.7174 46.2892 55.9387 46.1283C56.1532 45.9673 56.2941 45.7527 56.3477 45.4845H55.0602V44.9145H56.978V45.1895Z" fill="#28A3A1"/>
<path d="M61.1355 46.9262L60.3174 45.518H59.5664V46.9262H58.9294V43.0638H60.4717C60.8137 43.0638 61.1087 43.1845 61.3501 43.4259C61.5915 43.6673 61.7122 43.9623 61.7122 44.3043C61.7122 44.5524 61.6385 44.7737 61.4976 44.9816C61.3568 45.1828 61.1691 45.3303 60.9411 45.4242L61.8195 46.9262H61.1355ZM59.5664 43.6606V44.9481H60.4784C60.646 44.9481 60.7936 44.8877 60.9076 44.7603C61.0283 44.6329 61.0819 44.4854 61.0819 44.3043C61.0819 44.1233 61.0215 43.969 60.9076 43.8483C60.7868 43.7209 60.646 43.6606 60.4784 43.6606H59.5664Z" fill="#28A3A1"/>
<path d="M62.9461 46.316H64.656V46.9195H62.3157V43.0571H64.6292V43.6606H62.9461V44.6664H64.4884V45.2699H62.9461V46.316Z" fill="#28A3A1"/>
<path d="M67.801 46.9262L67.526 46.1484H65.8832L65.6149 46.9262H64.9242L66.3257 43.0638H67.0835L68.4782 46.9262H67.801ZM66.0977 45.5516H67.3182L66.708 43.8081L66.0977 45.5516Z" fill="#28A3A1"/>
<path d="M69.5377 46.316H71.1069V46.9195H68.9007V43.0571H69.5377V46.316Z" fill="#28A3A1"/>
<path d="M73.588 46.316H75.2979V46.9195H72.9576V43.0571H75.2711V43.6606H73.588V44.6664H75.1303V45.2699H73.588V46.316Z" fill="#28A3A1"/>
<path d="M77.1621 46.9933C76.7933 46.9933 76.4781 46.9061 76.2166 46.7385C75.9551 46.5708 75.774 46.3361 75.6734 46.0411L76.2166 45.7192C76.3708 46.1551 76.6927 46.3697 77.1755 46.3697C77.4169 46.3697 77.5912 46.3227 77.7119 46.2288C77.8326 46.135 77.893 46.0143 77.893 45.86C77.893 45.7058 77.8259 45.5851 77.6985 45.4979C77.5711 45.4175 77.3431 45.3236 77.0146 45.223C76.8335 45.1559 76.686 45.1023 76.572 45.0621C76.458 45.0218 76.3373 44.9548 76.2099 44.8676C76.0825 44.7804 75.9886 44.6731 75.9282 44.5457C75.8679 44.4183 75.8344 44.2641 75.8344 44.0964C75.8344 43.7545 75.9551 43.4862 76.1965 43.2851C76.4379 43.0839 76.7329 42.9833 77.0749 42.9833C77.3834 42.9833 77.6516 43.0571 77.8863 43.2113C78.121 43.3588 78.2953 43.5667 78.4227 43.8349L77.8863 44.1434C77.7254 43.7813 77.4571 43.6002 77.0749 43.6002C76.8939 43.6002 76.7463 43.6405 76.6323 43.7276C76.525 43.8148 76.4647 43.9288 76.4647 44.0763C76.4647 44.2172 76.5183 44.3244 76.6323 44.4116C76.7463 44.4921 76.9475 44.5793 77.2425 44.6664C77.3901 44.7201 77.4907 44.7603 77.5577 44.7871C77.6248 44.8139 77.7186 44.8475 77.8461 44.8944C77.9735 44.9414 78.0674 44.9883 78.1277 45.0419C78.188 45.0956 78.2551 45.1626 78.3289 45.2364C78.4026 45.3169 78.4496 45.404 78.4764 45.5046C78.5032 45.6052 78.5233 45.7192 78.5233 45.8466C78.5233 46.1953 78.3959 46.4703 78.1478 46.6781C77.8997 46.8927 77.5711 46.9933 77.1621 46.9933Z" fill="#28A3A1"/>
<path d="M81.447 43.0638V43.6673H80.3607V46.9195H79.7236V43.6673H78.6306V43.0638H81.447Z" fill="#28A3A1"/>
<path d="M84.1561 46.9262L83.8812 46.1484H82.2383L81.97 46.9262H81.2794L82.6808 43.0638H83.4386L84.8334 46.9262H84.1561ZM82.4529 45.5516H83.6733L83.0631 43.8081L82.4529 45.5516Z" fill="#28A3A1"/>
<path d="M87.4821 43.0638V43.6673H86.3958V46.9195H85.7587V43.6673H84.6657V43.0638H87.4821Z" fill="#28A3A1"/>
<path d="M88.5885 46.316H90.2985V46.9195H87.9582V43.0571H90.2717V43.6606H88.5885V44.6664H90.1308V45.2699H88.5885V46.316Z" fill="#28A3A1"/>
<path d="M96.0117 45.1895C96.0117 45.7192 95.8373 46.1484 95.4887 46.4904C95.14 46.8256 94.684 46.9933 94.1207 46.9933C93.5239 46.9933 93.0344 46.7988 92.6455 46.4166C92.2565 46.0277 92.0621 45.5583 92.0621 44.995C92.0621 44.4384 92.2565 43.9623 92.6455 43.5734C93.0344 43.1845 93.5105 42.99 94.0872 42.99C94.4493 42.99 94.7779 43.0705 95.0729 43.2381C95.368 43.4058 95.6027 43.627 95.7703 43.902L95.2271 44.2171C95.1265 44.0361 94.9723 43.8886 94.7712 43.7746C94.57 43.6606 94.342 43.6069 94.0939 43.6069C93.6916 43.6069 93.3563 43.741 93.0947 44.0026C92.8332 44.2641 92.7058 44.5994 92.7058 44.995C92.7058 45.3906 92.8399 45.7192 93.1014 45.9807C93.363 46.2423 93.7117 46.3697 94.1341 46.3697C94.4761 46.3697 94.751 46.2892 94.9723 46.1283C95.1869 45.9673 95.3277 45.7527 95.3814 45.4845H94.0939V44.9145H96.0117V45.1895Z" fill="#28A3A1"/>
<path d="M98.7878 46.9262L97.9698 45.518H97.2187V46.9262H96.5817V43.0638H98.124C98.466 43.0638 98.761 43.1845 99.0024 43.4259C99.2438 43.6673 99.3645 43.9623 99.3645 44.3043C99.3645 44.5524 99.2908 44.7737 99.15 44.9816C99.0091 45.1828 98.8214 45.3303 98.5934 45.4242L99.4718 46.9262H98.7878ZM97.2254 43.6606V44.9481H98.1374C98.305 44.9481 98.4526 44.8877 98.5666 44.7603C98.6873 44.6329 98.7409 44.4854 98.7409 44.3043C98.7409 44.1233 98.6806 43.969 98.5666 43.8483C98.4459 43.7209 98.305 43.6606 98.1374 43.6606H97.2254Z" fill="#28A3A1"/>
<path d="M103.167 46.4166C102.778 46.8055 102.308 47 101.745 47C101.188 47 100.712 46.8055 100.323 46.4166C99.9345 46.0277 99.7401 45.5583 99.7401 44.995C99.7401 44.4384 99.9345 43.9623 100.323 43.5734C100.712 43.1845 101.182 42.99 101.745 42.99C102.302 42.99 102.778 43.1845 103.167 43.5734C103.556 43.9623 103.75 44.4384 103.75 44.995C103.75 45.5516 103.556 46.0277 103.167 46.4166ZM100.773 45.9807C101.034 46.2423 101.363 46.3764 101.745 46.3764C102.134 46.3764 102.456 46.2423 102.717 45.9807C102.979 45.7192 103.113 45.3906 103.113 44.9883C103.113 44.586 102.979 44.2641 102.717 43.9959C102.456 43.7343 102.127 43.6002 101.745 43.6002C101.356 43.6002 101.034 43.7343 100.773 43.9959C100.511 44.2574 100.377 44.586 100.377 44.9883C100.377 45.3906 100.511 45.7192 100.773 45.9807Z" fill="#28A3A1"/>
<path d="M106.774 46.6312C106.499 46.8793 106.151 47 105.722 47C105.292 47 104.944 46.8793 104.669 46.6312C104.394 46.3898 104.26 46.0612 104.26 45.6455V43.0638H104.897V45.6052C104.897 45.8399 104.964 46.0277 105.105 46.1685C105.245 46.3093 105.447 46.3764 105.728 46.3764C106.003 46.3764 106.211 46.3093 106.352 46.1685C106.493 46.0277 106.56 45.8399 106.56 45.6052V43.0638H107.197V45.6455C107.183 46.0545 107.043 46.3831 106.774 46.6312Z" fill="#28A3A1"/>
<path d="M109.329 43.0638C109.691 43.0638 110 43.1845 110.241 43.4259C110.489 43.6673 110.61 43.969 110.61 44.3311C110.61 44.6865 110.489 44.9883 110.241 45.2297C109.993 45.4778 109.691 45.5985 109.329 45.5985H108.538V46.9195H107.901V43.0571H109.329V43.0638ZM109.329 45.0017C109.517 45.0017 109.671 44.9414 109.792 44.814C109.913 44.6865 109.973 44.5256 109.973 44.3311C109.973 44.1367 109.913 43.9757 109.792 43.8483C109.671 43.7209 109.517 43.6606 109.329 43.6606H108.538V45.0084H109.329V45.0017Z" fill="#28A3A1"/>
</svg>
