<svg width="15" height="15" viewBox="0 0 15 15" fill="none" xmlns="http://www.w3.org/2000/svg">
<path d="M15 11.1833V14.13C15.0001 14.341 14.9202 14.5441 14.7763 14.6985C14.6325 14.8528 14.4355 14.9469 14.225 14.9617C13.8608 14.9867 13.5633 15 13.3333 15C5.96917 15 0 9.03083 0 1.66667C0 1.43667 0.0125 1.13917 0.0383333 0.775C0.053102 0.564537 0.147151 0.367509 0.301503 0.223674C0.455855 0.079839 0.659019 -9.53609e-05 0.87 2.13816e-07H3.81667C3.92003 -0.000104445 4.01975 0.0382159 4.09644 0.107517C4.17313 0.176818 4.22133 0.272152 4.23167 0.375C4.25083 0.566667 4.26833 0.719167 4.285 0.835C4.45061 1.99077 4.79 3.11486 5.29167 4.16917C5.37083 4.33583 5.31917 4.535 5.16917 4.64167L3.37083 5.92667C4.47038 8.48871 6.51212 10.5305 9.07417 11.63L10.3575 9.835C10.41 9.76167 10.4865 9.70907 10.5737 9.68638C10.661 9.66369 10.7535 9.67234 10.835 9.71083C11.8892 10.2116 13.013 10.5501 14.1683 10.715C14.2842 10.7317 14.4367 10.75 14.6267 10.7683C14.7294 10.7789 14.8245 10.8271 14.8936 10.9038C14.9628 10.9805 15.001 11.0801 15.0008 11.1833H15Z" fill="#333333"/>
</svg>
