<svg width="60" height="60" viewBox="0 0 60 60" fill="none" xmlns="http://www.w3.org/2000/svg">
<rect width="60" height="60" fill="#28A3A1" fill-opacity="0.2"/>
<path fill-rule="evenodd" clip-rule="evenodd" d="M37.5604 22.9366C37.5604 27.3423 34.1546 30.875 29.9071 30.875C25.6597 30.875 22.2539 27.3423 22.2539 22.9366C22.2539 18.5293 25.6597 15 29.9071 15C34.1546 15 37.5604 18.5293 37.5604 22.9366ZM29.9081 44.999C23.6696 44.999 18.3427 43.9791 18.3427 39.8993C18.3427 35.8178 23.6354 34.7607 29.9081 34.7607C36.1466 34.7607 41.4734 35.7807 41.4734 39.8621C41.4734 43.9419 36.1807 44.999 29.9081 44.999ZM40.8321 23.0795C40.8321 25.3254 40.1825 27.4176 39.0429 29.1569C38.9257 29.3359 39.0299 29.5774 39.2366 29.6146C39.5215 29.6652 39.8162 29.6939 40.1158 29.7024C43.1031 29.7834 45.7845 27.7891 46.5252 24.7867C47.6225 20.327 44.4007 16.3232 40.2981 16.3232C39.852 16.3232 39.4255 16.3722 39.0104 16.46C38.9534 16.4735 38.8931 16.5005 38.8606 16.5529C38.8215 16.6171 38.8508 16.7032 38.8899 16.7589C40.1223 18.5506 40.8321 20.7357 40.8321 23.0795ZM45.7786 32.8359C47.7859 33.2429 49.1062 34.0737 49.6532 35.2811C50.1156 36.2723 50.1156 37.4223 49.6532 38.4118C48.8164 40.2845 46.1188 40.8857 45.0704 41.041C44.8539 41.0748 44.6797 40.8806 44.7025 40.656C45.2381 35.4668 40.9776 33.0065 39.8755 32.4408C39.8283 32.4154 39.8185 32.3766 39.8234 32.3529C39.8266 32.3361 39.8462 32.309 39.882 32.304C42.267 32.2584 44.8311 32.5961 45.7786 32.8359ZM19.8865 29.7024C20.186 29.6939 20.4791 29.6669 20.7656 29.6146C20.9724 29.5774 21.0766 29.3359 20.9593 29.1569C19.8197 27.4176 19.1702 25.3254 19.1702 23.0795C19.1702 20.7357 19.88 18.5506 21.1124 16.7589C21.1514 16.7032 21.1791 16.6171 21.1417 16.5529C21.1091 16.5022 21.0473 16.4735 20.9919 16.46C20.5751 16.3722 20.1486 16.3232 19.7025 16.3232C15.6 16.3232 12.3782 20.327 13.4771 24.7867C14.2178 27.7891 16.8991 29.7834 19.8865 29.7024ZM20.1762 32.3513C20.1811 32.3766 20.1713 32.4137 20.1258 32.4408C19.022 33.0065 14.7615 35.4668 15.2971 40.6543C15.3199 40.8806 15.1473 41.0731 14.9308 41.041C13.8824 40.8857 11.1848 40.2845 10.348 38.4118C9.884 37.4206 9.884 36.2723 10.348 35.2811C10.895 34.0737 12.2137 33.2429 14.221 32.8342C15.1701 32.5961 17.7326 32.2584 20.1192 32.304C20.1551 32.309 20.173 32.3361 20.1762 32.3513Z" fill="#28A3A1"/>
</svg>
